<svg viewBox="0 0 763 670"><g fill="none" fill-rule="evenodd"><rect width="670" height="670" fill="#E2CBFC" fill-rule="nonzero" rx="335"/><path fill="#FF901B" fill-rule="nonzero" d="M432 627H87.1c-27.8 0-50.4-22.6-50.4-50.4v-122c0-14.6 6.4-28.5 17.6-38l78-66.5h204.2l78 66.5c11.1 9.5 17.6 23.4 17.6 38V627h-.1Z"/><path fill="#00E7E9" fill-rule="nonzero" d="M432 627H87.1c-27.8 0-50.4-22.6-50.4-50.4v-122c0-14.6 6.4-28.5 17.6-38l78-66.5h204.2l78 66.5c11.1 9.5 17.6 23.4 17.6 38V627h-.1Z"/><path fill="#00D1C5" fill-rule="nonzero" d="M36.7 551.1v25.5c0 27.8 22.6 50.4 50.4 50.4H432v-25.5H87.1c-27.8 0-50.4-22.6-50.4-50.4Zm377.7-134.6-78-66.5H306l78 66.5c11.1 9.5 17.6 23.4 17.6 38V627H432V454.6c0-14.7-6.4-28.6-17.6-38.1Z"/><path fill="#FFF4E4" fill-rule="nonzero" d="m164 371 70 50 70-50z"/><path stroke="#171819" stroke-linecap="round" stroke-linejoin="round" stroke-width="6" d="M432 627H87.1c-27.8 0-50.4-22.6-50.4-50.4v-122c0-14.6 6.4-28.5 17.6-38l78-66.5h204.2l78 66.5c11.1 9.5 17.6 23.4 17.6 38V627h-.1Z"/><path fill="#FFDEC5" fill-rule="nonzero" d="M161.3 555.4h78.4V627h-78.4z"/><path fill="#EFB58E" fill-rule="nonzero" d="M161.3 611.2h78.4V627h-78.4z"/><path stroke="#171819" stroke-linecap="round" stroke-linejoin="round" stroke-width="6" d="M161.3 555.4h78.4V627h-78.4zM106 373l66 92s17-52 62-44c-65-48-70-50-70-50m198.4.9-66 92s-17-52-62-44c65-48 70-50 70-50M234 421v167.9"/><circle cx="258.5" cy="469.5" r="6.5" fill="#171819" fill-rule="nonzero"/><circle cx="258.5" cy="511.5" r="6.5" fill="#171819" fill-rule="nonzero"/><path fill="#76AEE2" fill-rule="nonzero" d="M487.8 628.6H225.2c-10.1 0-18.2-8.2-18.2-18.2v-3.3c0-10.1 8.2-18.2 18.2-18.2H506v21.5c0 10.1-8.2 18.2-18.2 18.2Z"/><path stroke="#171819" stroke-linecap="round" stroke-linejoin="round" stroke-width="6" d="M487.8 628.6H225.2c-10.1 0-18.2-8.2-18.2-18.2v-3.3c0-10.1 8.2-18.2 18.2-18.2H506v21.5c0 10.1-8.2 18.2-18.2 18.2Z"/><path fill="#FFF4E4" fill-rule="nonzero" d="M680.6 628.7H429.8c-11.5 0-20.1-10.7-17.6-21.9l47.1-210.4c3.9-17.4 18.4-29.7 35-29.7h235.2c19.4 0 33.7 19.6 29.2 39.9L715.6 599c-3.9 17.4-18.4 29.7-35 29.7Z"/><path fill="#BFE0FF" fill-rule="nonzero" d="M680.6 628.7H429.8c-11.5 0-20.1-10.7-17.6-21.9l47.1-210.4c3.9-17.4 18.4-29.7 35-29.7h235.2c19.4 0 33.7 19.6 29.2 39.9L715.6 599c-3.9 17.4-18.4 29.7-35 29.7Z"/><path fill="#B0AEFA" fill-rule="nonzero" d="M692.6 619.5H441.7c-11.5 0-20.1-10.7-17.6-21.9l47.1-210.4c1.5-6.6 4.5-12.5 8.6-17.3-10.1 4.8-17.8 14.4-20.5 26.4l-47.1 210.4c-2.5 11.2 6 21.9 17.6 21.9h250.8c10.3 0 19.8-4.7 26.4-12.4-4.4 2.1-9.3 3.3-14.4 3.3Z"/><path fill="#76AEE2" fill-rule="nonzero" d="m432.4 606.7 47.1-210.4c3.9-17.4 18.4-29.7 35-29.7h-20.2c-16.6 0-31.1 12.3-35 29.7l-47.1 210.4c-2.5 11.2 6 21.900695 17.6 21.900695H450C438.5 628.7 429.9 618 432.4 606.7Z"/><path stroke="#171819" stroke-linecap="round" stroke-linejoin="round" stroke-width="6" d="M680.6 628.7H429.8c-11.5 0-20.1-10.7-17.6-21.9l47.1-210.4c3.9-17.4 18.4-29.7 35-29.7h235.2c19.4 0 33.7 19.6 29.2 39.9L715.6 599c-3.9 17.4-18.4 29.7-35 29.7Z"/><path fill="#FFF" fill-rule="nonzero" d="M606.5 480.4c.1-1.6.5-3.2.9-4.7-1.8-.5-3.7-.7-5.6-.6-13.2.5-26 12.8-28.6 27.6-2.6 14.8 6 26.4 19.2 26 12.6-.4 24.8-11.7 28.2-25.5-9.1-3.3-15.1-12.4-14.1-22.8Z"/><path fill="#FFDEC5" fill-rule="nonzero" d="M286.5 567.7H301c5.9 0 10.6 4.8 10.6 10.6 0 5.9-4.8 10.6-10.6 10.6h-31.4"/><path stroke="#171819" stroke-linecap="round" stroke-linejoin="round" stroke-width="6" d="M282 567.7h19c5.9 0 10.6 4.8 10.6 10.6h0c0 5.9-4.8 10.6-10.6 10.6h-31.4"/><path fill="#FFDEC5" fill-rule="nonzero" d="M225 555.4h51.4c9.3 0 16.8 7.5 16.8 16.8s-7.5 16.8-16.8 16.8h-51.2"/><path stroke="#171819" stroke-linecap="round" stroke-linejoin="round" stroke-width="6" d="M225 555.4h51.4c9.3 0 16.8 7.5 16.8 16.8h0c0 9.3-7.5 16.8-16.8 16.8h-51.2"/><path stroke="#171819" stroke-linecap="round" stroke-linejoin="round" stroke-width="6" d="M235 567.7h21.6c5.9 0 10.6 4.8 10.6 10.6h0c0 5.9-4.8 10.6-10.6 10.6h-31.4m-105.4-49.4h41.5V627"/><g transform="translate(63.4 16.638609)"><path fill="#FFDEC5" fill-rule="nonzero" d="M171.9 367.361391h-5.1c-71.1 0-128.7-38.6-128.7-109.7V97.5613907h262.5V257.661391c0 71.1-57.6 109.7-128.7 109.7Z"/><path fill="#EFB58E" fill-rule="nonzero" d="M38.6 131.261391s23.2 40 86.9 42.3c97.4 3.4 135.9-46.9 135.9-46.9l-222.8 4.6Zm133.3 218.8h-5.1c-71.1 0-128.7-34.6-128.7-105.7v13.3c0 71.1 57.6 109.7 128.7 109.7h5.1c71.1 0 128.7-38.6 128.7-109.7v-13.3c0 71.1-57.6 105.7-128.7 105.7Z"/><path stroke="#171819" stroke-linecap="round" stroke-linejoin="round" stroke-width="6" d="M171.9 367.361391h-5.1c-71.1 0-128.7-38.6-128.7-109.7V97.5613907h262.5V257.661391c0 71.1-57.6 109.7-128.7 109.7Z"/><path fill="#FF9472" fill-rule="nonzero" d="M73.6 176.361391c-13 45-35 35-35 35V91.3613907h37s6.3 56.2000003-2 85.0000003Z"/><path fill="#EF7756" fill-rule="nonzero" d="M76.4 162.361391c1.3-10 1.6-21.4 1.5-31.9l-39.3.8s10.8 18.6 37.8 31.1Z"/><path stroke="#171819" stroke-linecap="round" stroke-linejoin="round" stroke-width="6" d="M73.6 176.361391c-13 45-35 35-35 35V91.3613907h37s6.3 56.2000003-2 85.0000003Z"/><path fill="#FF9472" fill-rule="nonzero" d="M268.2 31.6613907c-19-17.2-47.3-32.69999997-86.8-31.59999997-.5 7.8 5 24.69999997 15 32.99999997-37.6-34.99999997-118.5-35.29999997-144.5-9.1 3.8 12.1 14.5 27.6 31.1 35.6-47.3-10.9-80.3 12.6-83 21 8.3 20.7000003 27.1 42.0000003 38.6 50.7000003 38.8 29.1 145.9 40.4 212.3 1.9 3.8-2.2 7.3-4.4 10.5-6.5-.4 16.9.3 36.3 4.2 49.8 13 45 35 35 35 35v-106.1c0-28.0000003-11.6-54.9000003-32.4-73.7000003Z"/><g fill="#EF7756" fill-rule="nonzero"><path d="M196.4 33.1613911c-2.4-3.4-8.8-6.2-19.1-13.3-41.1-21.30000003-103.2-18.30000003-125.4 4.1.5 1.7 1.2 3.5 2 5.3 29.6-19.1 92.9-20.40000003 129.2 6.8 4.7 3.5 13.3 3 13.3-2.9Zm-113 28c0-.7-.2-1.2-.4-1.6-1.9-.4-8.8-1.1-23.4-2.8-34.5-.3-57.4 16.9-59.6 23.9.4 1.1.9 2.2 1.4 3.3 11.6-9.3 39.8-21.7 73.8-15.6 4.4.7 8.5-2.7 8.2-7.2Z"/><path d="M268.2 31.6613911c-19-17.2-47.3-32.70000003-86.8-31.60000003-.2 2.8.4 6.7 1.7 11.00000003 28.3.6 52.9 10.8 67.3 25.6 28 28.8 11.4 71.3999999-.9 86.5999999-14.9 18.4-23.9 21.5-23.9 21.5s29.7-8.5 35.7-18.2c-5 26.2 7.4 81.7 34.1 85.7 3.2 0 5.2-.9 5.2-.9v-106c0-27.9999999-11.6-54.8999999-32.4-73.6999999Z"/></g><path stroke="#171819" stroke-linecap="round" stroke-linejoin="round" stroke-width="6" d="M278.8 42.3613907c-18.5-20.9-49.8-43.69999997-97.4-42.29999997-.5 7.8 5 24.69999997 15 32.99999997-37.6-34.99999997-118.5-35.29999997-144.5-9.1 3.8 12.1 14.5 27.6 31.1 35.6-47.3-10.9-80.3 12.6-83 21 8.3 20.7000003 27.1 42.0000003 38.6 50.7000003 38.8 29.1 145.9 40.4 212.3 1.9 3.8-2.2 7.3-4.4 10.5-6.5-.4 16.9.3 36.3 4.2 49.8 13 45 35 35 35 35v-111.1c0-21.3000003-7.6-42.0000003-21.8-58.0000003Z"/><path stroke="#171819" stroke-linecap="round" stroke-linejoin="round" stroke-width="6" d="M280.9 108.161391s-11.4 12.5-19.6 18.5c-8.5 6.2-21 13.9-37.9 19m-118.5 68c12.2-2.1 24.8-2.1 37 0"/><circle cx="131.3" cy="228.261391" r="9.2" fill="#171819" fill-rule="nonzero"/><path stroke="#171819" stroke-linecap="round" stroke-linejoin="round" stroke-width="6" d="M199.3 213.661391c12.2-2.1 24.8-2.1 37 0"/><circle cx="225.6" cy="228.261391" r="9.2" fill="#171819" fill-rule="nonzero"/><path stroke="#171819" stroke-linecap="round" stroke-linejoin="round" stroke-width="6" d="M154.4 266.761391c3.3 5.7 9.5 9.5 16.6 9.5 7 0 13.2-3.8 16.6-9.5"/><path fill="#FFF" fill-rule="nonzero" d="M205.8 299.361391c0 15.2-15.8 27.4-35.2 27.4-19.4 0-35.2-12.3-35.2-27.4h70.4Z"/><path stroke="#171819" stroke-linecap="round" stroke-linejoin="round" stroke-width="6" d="M205.8 299.361391c0 15.2-15.8 27.4-35.2 27.4-19.4 0-35.2-12.3-35.2-27.4h70.4Z"/><path fill="#FFDEC5" fill-rule="nonzero" d="M38.1 173.5613909s-23.4-1.70000001-23.4 22c0 25.3 5.9 40.9 23.4 41.5v-63.5Z"/><path stroke="#171819" stroke-linecap="round" stroke-linejoin="round" stroke-width="6" d="M38.1 173.5613909s-23.4-1.70000001-23.4 22c0 25.3 5.9 40.9 23.4 41.5v-63.5Z"/><path fill="#FFDEC5" fill-rule="nonzero" d="M300.6 173.5613909s23.4-1.70000001 23.4 22c0 25.3-5.9 40.9-23.4 41.5v-63.5Z"/><path stroke="#171819" stroke-linecap="round" stroke-linejoin="round" stroke-width="6" d="M300.6 173.5613909s23.4-1.70000001 23.4 22c0 25.3-5.9 40.9-23.4 41.5v-63.5Z"/></g><path fill="#FFF" fill-rule="nonzero" d="M709.2 179.6h-137c-11 0-20 9-20 20V274c0 11 9 20 20 20H618l22.8 28.4 22.8-28.4h45.7c11 0 20-9 20-20v-74.4c-.1-11-9-20-20.1-20Z"/><path stroke="#171819" stroke-linecap="round" stroke-linejoin="round" stroke-width="6" d="M709.2 179.6h-137c-11 0-20 9-20 20V274c0 11 9 20 20 20H618l22.8 28.4 22.8-28.4h45.7c11 0 20-9 20-20v-74.4c-.1-11-9-20-20.1-20Z"/><g fill="#000" fill-rule="nonzero" transform="translate(594.3 230.2)"><circle cx="9.7" cy="9.7" r="9.7"/><circle cx="85.8" cy="9.7" r="9.7"/><circle cx="47.8" cy="9.7" r="9.7"/></g></g></svg>
