<svg xmlns="http://www.w3.org/2000/svg" xmlns:xlink="http://www.w3.org/1999/xlink" viewBox="0 0 1510 750"><defs><linearGradient id="c" x1="50%" x2="50%" y1="0%" y2="100%"><stop offset="0%" stop-color="#E6864E"/><stop offset="100%" stop-color="#EB965E"/></linearGradient><linearGradient id="d" x1="50%" x2="50%" y1="0%" y2="100%"><stop offset="0%" stop-color="#130027"/><stop offset="100%" stop-color="#130017"/></linearGradient><linearGradient id="e" x1="50%" x2="50%" y1="100%" y2="0%"><stop offset="0%" stop-color="#E6864E"/><stop offset="100%" stop-color="#E67240"/></linearGradient><linearGradient id="f" x1="50%" x2="50%" y1="0%" y2="100%"><stop offset="0%" stop-color="#130027"/><stop offset="100%" stop-color="#130017"/></linearGradient><linearGradient id="h" x1="50%" x2="50%" y1="100%" y2="0%"><stop offset="0%" stop-color="#E6864E"/><stop offset="100%" stop-color="#E67240"/></linearGradient><linearGradient id="j" x1="50%" x2="50%" y1="100%" y2="0%"><stop offset="0%" stop-color="#FFC9B3"/><stop offset="100%" stop-color="#FFD2C2"/></linearGradient><linearGradient id="k" x1="50%" x2="50%" y1="0%" y2="100%"><stop offset="0%" stop-color="#FFD4B3"/><stop offset="100%" stop-color="#FFDCC2"/></linearGradient><circle id="a" cx="64" cy="64" r="64"/><circle id="g" cx="64" cy="64" r="64"/></defs><g fill="none" fill-rule="evenodd"><path fill="#DCE6FF" d="M0 195h973v429c0 9.941125-8.058875 18-18 18H18c-9.9411255 0-18-8.058875-18-18V195Z"/><path fill="#C1D2FF" d="M18 114h937c9.941125 0 18 8.058875 18 18v63H0v-63c0-9.941125 8.0588745-18 18-18Z"/><circle cx="36.5" cy="154.5" r="12.5" fill="#EDF2FF"/><circle cx="71.5" cy="154.5" r="12.5" fill="#EDF2FF"/><circle cx="106.5" cy="154.5" r="12.5" fill="#EDF2FF"/><g transform="translate(595 441)"><rect width="915" height="309" fill="#FFF" rx="18"/><path fill="#000" fill-opacity=".06" d="M40 244h715v25H40zm0-43h835v25H40z"/><path fill="#DAE3FF" d="M210 104h171v25H210z"/><path fill="#616C91" d="M210 61h261v25H210z"/><g transform="translate(40 40)"><mask id="b" fill="#fff"><use xlink:href="#a"/></mask><use xlink:href="#a" fill="#DBB8FF"/><g mask="url(#b)"><path fill="url(#c)" d="M64.8533333 61.8666667v9.3866666c0 .6195877-4.5511111 1.8671859-13.6533333 3.7427945-9.1022222-1.6113224-13.6533333-2.8589206-13.6533333-3.7427945 0-2.5086185.0513717-15.1033131 0-26.7998403-6.1150159-7.9260538-6.1150159-12.8801597-1.28-18.0001597C39.4900106 23.04 52.574455 20.48 75.52 18.7733333c1.7215966 16.5574974 2.7171521 27.0819418 2.9866667 31.5733334.1625811 2.7093732 1.92 11.52-4.9066667 11.52h-8.7466667Z" transform="translate(12.8 13.226667)"/><path fill="#F5C6A6" d="M64.8533333 61.0658687v5.1358707c-9.1445905-1.628826-14.4068128-5.0649613-15.7866666-10.3084061 3.9822222 2.7022223 9.1022222 4.4088889 15.36 5.12.1429358.0162427.2851791.0337716.4266666.0525354Z" style="mix-blend-mode:multiply" transform="translate(12.8 13.226667)"/><path fill="url(#d)" fill-rule="nonzero" d="M96 90.5846752c2.7079762 5.5059343 4.841309 14.6081568 6.4 27.3066668H0c1.55943585-12.699933 3.69276918-21.8021555 6.4-27.3066668 1.79888053-3.6575966 11.043325-9.0064188 27.7333333-16.0464666l34.1333334-.0028838C84.9602376 81.5846001 94.204682 86.9343836 96 90.5846752Z" transform="translate(12.8 13.226667)"/><path fill="url(#e)" d="M54.1866667 77.2266667 56.32 116.48H46.08l2.1333333-39.2533333c1.3274074-1.4222223 2.322963-2.1333334 2.9866667-2.1333334.6637037 0 1.6592593.7111111 2.9866667 2.1333334Z" transform="translate(12.8 13.226667)"/><path fill="#D24B24" d="m67.4183874 98.3969945-6.6286294-3.8298747.2235753-4.1137861C62.3407407 89.0311114 63.3362963 88.3200003 64 88.3200003c.6637037 0 1.6592593.7111111 2.9866667 2.1333334l.4317207 7.9436608Z"/><path fill="#FFF" d="m64 88.3163062-4.2666667 7.6836941-13.2266666-8.1066666 3.84-5.5466667L64 87.3903226l13.6533333-5.0436556 3.84 5.5466667-13.2266666 8.1066666z"/><path fill="url(#f)" fill-rule="nonzero" d="M43.10202 31.6609627c-1.3569644-1.1653526-3.0054953-1.9498145-5.3359071-.7389987-5.5250545 2.8706615-1.8582004 13.9356084 4.3246975 13.7196969 2.1320337-.0744523 1.15521 4.1771471-4.5441437 6.9850058 0-4.48-6.8266667-15.5733334-7.4220346-25.6735875-6.8712988-2.5577703-5.1646321-12.7922026-.4467135-12.7922026-.7545902-9.38305394 14.2687481-14.22754327 20.0859351-8.84472964C55.68-2.77333333 70.6133333.85333333 71.5151888 7.0036928 81.7834688 1.52199569 88.5333333 17.28 78.9184244 23.3953089c-3.9563115 2.5163075-13.2117577 3.4752133-26.5717568 3.4752133-6.4112817 0-2.7242305 15.005923-.7200009 19.8494778 2.56 6.1866667 16.8533333 7.04 21.3333333 6.4 3.4984506-.4997787 5.3333333-1.92 5.5466667-2.7733333C81.7066667 58.88 77.6533015 64 71.2533333 64c-10.88 0-21.76-3.2-23.4666666-11.0933333-1.3582604-6.2819544-1.2838198-16.4198449-4.6846467-21.245704Z" transform="translate(12.8 13.226667)"/></g></g></g><g transform="translate(515)"><rect width="915" height="401" fill="#FFF" rx="18"/><path fill="#000" fill-opacity=".06" d="M40 330h565v25H40zm0-43h835v25H40zm0-43h835v25H40zm0-43h835v25H40z"/><path fill="#DAE3FF" d="M210 104h331v25H210z"/><path fill="#616C91" d="M210 61h191v25H210z"/><g transform="translate(40 40)"><mask id="i" fill="#fff"><use xlink:href="#g"/></mask><use xlink:href="#g" fill="#C5D2FF" fill-rule="nonzero"/><path fill="url(#h)" d="M21.5291611 68.3477378c-3.4554463-11.4408865-5.5853064-31.001071 8.9454126-44.3782455 11.1049825-10.2233956 41.1063009-11.2538135 51.5426156 11.0414773 1.7421834 3.7218584-.6389581 9.5551247-5.3246504 9.3427886-1.8416215-.0834547-2.9818042 5.7330748-4.0467343 9.3427885 1.4909021 14.6511911 14.7736602 14.9217291 21.5115875 26.1173407C102.463847 93.6157341 92.240518 114 67.7471263 114s-38.534534-20.2126349-46.2179652-45.6522622Z" mask="url(#i)" transform="matrix(-1 0 0 1 116 0)"/><path fill="url(#j)" d="M103.300971 101.389381C105.389428 105.353982 106.955771 114.557522 108 129H20c1.0442287-14.442478 2.6105717-23.646018 4.6990291-27.610619C27.8317152 95.4424779 40.9320388 88.6460177 64 81c23.0679612 7.6460177 36.168285 14.4424779 39.300971 20.389381Z" mask="url(#i)"/><path fill="url(#k)" d="M74.1002584 86.025C70.4938353 88.0083333 67.0315996 89 63.7135512 89c-3.3180484 0-6.6360968-.9916667-9.9541452-2.975v-9.35c-1.2680677.2269243-2.2404611.19309-3.2385205.1929854C40.3558594 76.8669199 36.5225727 62.017123 38.5037667 43.95c1.2713032 0 4.2376776 0 8.4753551-5.95-1.0594194 8.2875 11.2298457 7.0125 15.891291.425-2.3307227 7.8625 3.8139098 13.175 9.1110068 9.9875 10.3871188-6.2503936 12.7218271 12.8034696 2.1188388 12.9625v24.65Z" mask="url(#i)"/><path fill="#FFB597" fill-rule="nonzero" d="M54 76.6511628C59.7142857 75.6744186 64.7142857 73.7906977 69 71c-3.5714286 6-8.5714286 9-15 9v-3.3488372Z" mask="url(#i)"/><path fill="#FFF" d="M64.013934 88.5950305c3.0431067-.138207 10.0913292-1.6339428 10.0913292-4.8653247V81c.7722258 0 2.9833271 1.8305723 4.1203863 3.3802817C82.7210018 90.5070423 77.7347174 96 73.6683703 96 68.5371468 96 65.1376289 91.6979479 64 89.6280419 62.8623711 91.6979479 59.4628532 96 54.3316297 96c-4.0663471 0-9.0526315-5.4929577-4.5572792-11.6197183C50.9114097 82.8305723 53.122511 81 53.8947368 81v2.7297058c0 3.2313814 7.2387128 4.7271172 10.1191986 4.8653246l-.0000014 1e-7Z" mask="url(#i)"/></g></g></g></svg>
