<svg viewBox="0 0 200 50"><g fill="none"><path fill="#272827" d="M11.96 16.251v-1.936c0-1.0775075-.8734925-1.951-1.951-1.951H6.275V10.57c-.006-2.1.468-3.352.894-3.809l.02-.025c.2906833-.28641431.65582863-.48561599 1.054-.575a25.45699987 25.45699987 0 0 1 4.168-.323h.717c.5176106.00026531 1.014112-.20516876 1.3802118-.571081.3660998-.36591223.571793-.86230832.571793-1.379919V2.139C15.0820573 1.20436747 14.4196963.40013191 13.502.223c-.236-.046-.5-.092-.793-.137C12.341.029 10.408 0 10.028 0h-.027C6.86 0 4.184.734 2.392 2.656.638 4.588.009 7.315 0 10.63v36.529c0 1.0775075.87349245 1.951001 1.951 1.951001h2.373c.5176001.0005304 1.01415341-.2048501 1.38015214-.5708489.36599874-.3659987.57137928-.862552.57084786-1.3801521V18.2h3.732c.5175996.0010623 1.0143636-.2038091 1.3807376-.5694327.366374-.3656236.5722635-.8619666.5722624-1.3795673"/><path fill="#7476EB" d="M179.473 48.381c.351568.3815614.845191.6008693 1.364.606h2.413c.829481 0 1.568195-.5246636 1.841-1.308l14.8-42.461c.208636-.59663627.115308-1.2573761-.250416-1.77288556-.365723-.51550946-.958521-.82211645-1.590584-.82211645h-2.372c-.830573-.0011861-1.570549.52438521-1.843 1.30900201l-14.8 42.461c-.075683.2014378-.114632.4148142-.115.63.005499.5062143.202761.9915091.552 1.358"/><path fill="#272827" d="M132.111 48.985001h2.31c.5176.0005304 1.014153-.2048501 1.380152-.5708489.365999-.3659987.571379-.862552.570848-1.3801521V27.115c.009808-1.1445162.199456-2.2803779.562-3.366.368607-1.143022.923769-2.2171905 1.643-3.179.662784-.9036296 1.504612-1.6610367 2.473-2.225.949656-.5314521 2.025131-.7967797 3.113-.768 1.187386-.0749901 2.366886.2388411 3.36.894.880006.6774095 1.540866 1.5991354 1.9 2.65.503524 1.4229498.747067 2.9248495.719 4.434v21.479c0 1.0775075.873492 1.951001 1.951 1.951001h2.31c.517427 0 1.013723-.2052331 1.379505-.571203.365783-.3659698.571026-.8623713.570495-1.379798V27.115c.01003-1.1444156.199326-2.2801916.561-3.366.367738-1.1434987.922601-2.2180819 1.642-3.18.663331-.9035021 1.505455-1.6608693 2.474-2.225.949729-.5312664 2.025152-.7965813 3.113-.768 1.18708-.0750633 2.366285.238783 3.359.894.880581.6764324 1.5416 1.5980327 1.9 2.649.503432 1.4233196.746969 2.92553.719 4.435v21.48c0 1.0775075.873492 1.951001 1.951 1.951001h2.31c.5176.0005304 1.014153-.2048501 1.380152-.5708489.365999-.3659987.571379-.862552.570848-1.3801521V24.991c.05816-2.3688237-.367871-4.7245859-1.252-6.923-.821189-1.9698381-2.22851-3.6393518-4.031-4.782-1.928152-1.1516108-4.143908-1.7314736-6.389-1.672h-.039c-2.393783-.0208953-4.742983.6477259-6.767 1.926-1.333048.8584021-2.49592 1.9558422-3.43 3.237-.810671-1.4086092-1.946202-2.6031119-3.312-3.484-1.897354-1.1540043-4.087017-1.736919-6.307-1.679h-.045c-2.371941-.0136477-4.697746.6552817-6.7 1.927a12.00797564 12.00797564 0 0 0-1.687 1.324v-.7c-.013371-1.0577698-.865295-1.9132373-1.923-1.931h-2.34c-.517437 0-1.013682.2055512-1.379565.5714347-.365884.3658834-.571435.8621279-.571435 1.3795653v32.849c0 1.0775075.873492 1.951001 1.951 1.951001M101.321 47.251c2.622065 1.5788919 5.640224 2.3767961 8.7 2.3h.037c3.001242.0662101 5.961911-.7023451 8.552-2.22 2.521266-1.5687528 4.499015-3.8750209 5.665-6.606 1.323042-3.1849087 1.970044-6.6099314 1.9-10.058.067191-3.4184236-.564731-6.8145341-1.857-9.98-1.143899-2.7459299-3.083008-5.0869311-5.568-6.722-2.607196-1.6056093-5.625091-2.4182798-8.686-2.339h-.04c-3.016001-.0635266-5.989773.7168026-8.586 2.253-2.5240159 1.5691101-4.5023515 3.8788562-5.665 6.614-1.3236433 3.2266938-1.9572287 6.6947224-1.86 10.181-.0734655 3.3749604.5438408 6.729309 1.814 9.857 1.1263521 2.7637001 3.080414 5.1110895 5.594 6.72m1.5-26.542c.786142-1.0099722 1.80799-1.8117246 2.976-2.335 1.341961-.555132 2.78401-.8274736 4.236-.8 1.417634-.0267737 2.824652.2493795 4.127.81 1.172964.5487645 2.196496 1.37198 2.984 2.4 1.705 2.183 2.674 5.386 2.676 9.819v.006c0 4.568-.968 7.812-2.612 9.906-.776391 1.0073167-1.789794 1.8070463-2.95 2.328-1.337754.5551414-2.775894.8275162-4.224.8-2.767169.1636043-5.438503-1.0408879-7.148-3.223-1.726-2.189-2.7-5.364-2.7-9.75v-.006c0-4.607.978-7.867 2.638-9.956M60.756 2.076v44.958c-.0005314.5176001.2048491 1.0141534.5708479 1.3801521.3659987.3659988.862552.5713793 1.3801521.5708479h2.34c1.0526767-.0191629 1.9017411-.8673439 1.922-1.92v-19.95c.0116167-1.1312229.2169187-2.2520976.607-3.314.4097019-1.1499421 1.0167953-2.2196312 1.794-3.161.763083-.9344682 1.7121809-1.7000125 2.787-2.248 1.1377658-.5640013 2.3954537-.8433349 3.665-.814 1.4268241-.078482 2.8459703.256599 4.087.965.9799014.6343262 1.7374422 1.5586169 2.167 2.644.5494755 1.3897036.8166726 2.8749255.786 4.369v21.48c0 1.0775075.8734925 1.951 1.951 1.951h2.4c1.0540466-.0181494 1.9043023-.8679629 1.923-1.922V24.992c.0628647-2.4187533-.4333453-4.8193833-1.45-7.015-.957904-1.980629-2.4887274-3.6278146-4.394-4.728-2.0945808-1.1403626-4.454106-1.7048819-6.838-1.636h-.029c-2.5283389-.0245102-5.0152864.6425256-7.192 1.929a13.61199924 13.61199924 0 0 0-2.264 1.687V2.076c1e-7-.51761068-.2056884-1.01400677-.5717882-1.379919C66.031112.33016876 65.5346106.12499974 65.017.12499974h-2.341C61.6205157.1436664 60.7692145.99452557 60.75 2.05l.006.026Z"/><path fill="#000" d="M56.136 16.122v.004"/><path fill="#272827" d="M44.647 6.572v32.029c.006 3.28.646 6 2.379 7.929 1.8 1.954 4.5 2.7 7.682 2.7.374 0 .7406667-.0116667 1.1-.035.4684576-.0248054.9302553-.1219549 1.369-.288.7432387-.2920891 1.2336055-1.0074385 1.238-1.806v-1.752c-.0016551-1.0763358-.8746629-1.9480013-1.951-1.948h-.916c-.8947276.0203146-1.7876762-.0891567-2.651-.325-.398844-.0878268-.7652579-.2852331-1.058-.57l-.022-.027c-.428-.458-.9-1.714-.9-3.81V18.076h4.073c1.0536562-.0186815 1.9033185-.8683438 1.922-1.922V14.19c0-.5174374-.2055512-1.0136819-.5714347-1.3795653C55.9746819 12.4445512 55.4784374 12.239 54.961 12.239h-4.039V6.572c0-1.07750755-.8734925-1.951-1.951-1.951h-2.4c-1.0551415.0186983-1.90585.86984897-1.924 1.925v.026ZM11.334 38.481v.023c-.0444531 2.1115187.5324351 4.1895681 1.659 5.976 1.1285545 1.7134177 2.7417716 3.0519633 4.634 3.845 2.1078924.8595606 4.3702014 1.2758717 6.646 1.223 1.7508842-.0205072 3.4849345-.3446477 5.125-.958 1.8445802-.6786097 3.5510906-1.6855085 5.037-2.972.293-.25.569-.517.838-.791.1738347 1.1384013.5598546 2.2340463 1.138 3.23.3532509.5796762.9841769.9321297 1.663.929l1.142-.013c1.0689062-.012054 1.929068-.8820258 1.929-1.951v-20.9c.0566782-2.5631081-.4260945-5.1095039-1.417-7.474-.9507962-2.1896036-2.5728644-4.0203835-4.632-5.228-2.319033-1.2692457-4.9369138-1.890988-7.579-1.8-2.6042981-.0654113-5.1896036.4597182-7.562 1.536-2.1268222 1.0036317-3.9163214 2.6034461-5.151 4.605l-.009.014c-.1652727.2667123-.2528881.5742318-.253.888.004789.7557009.4857199 1.4261988 1.2 1.673l1.915.681c.2914942.1036358.5986312.1564039.908.156.8246902-.0016279 1.60495-.3739495 2.125-1.014a7.80999533 7.80999533 0 0 1 .578-.633c1.253-1.216 3.112-1.933 6-1.944 1.2449452-.0294876 2.4851317.1638894 3.662.571.843111.3036239 1.589129.8282541 2.16 1.519 1.084 1.33 1.766 3.386 1.83 6.332-2.788.044-5.261.16-7.4.36-2.6858309.2396018-5.3346501.7909777-7.893 1.643h-.009l-.023.007c-2.3401312.6382334-4.4450753 1.9411452-6.06 3.751-1.5037397 1.8929919-2.2837204 4.2598787-2.2 6.676l-.001.04Zm22.18-.325c-.9364148 1.6332092-2.2594702 3.0115492-3.853 4.014-1.552849.987471-3.3599253 1.5007501-5.2 1.477-1.858984.1317983-3.7050836-.3945967-5.215-1.487-.5239617-.4246665-.9416872-.9656552-1.22-1.58-.2885579-.7063814-.4304334-1.4640715-.417-2.227-.0139745-.8969294.2106949-1.7814573.651-2.563.5880348-.8656438 1.4223676-1.5348519 2.395-1.921 1.933111-.8118419 3.9724457-1.3428906 6.056-1.577 2.7280884-.3591874 5.4754883-.55221 8.2270615-.578v1.207c.0063267 1.8410742-.4853681 3.6495991-1.4230615 5.234"/></g></svg>
