<svg xmlns="http://www.w3.org/2000/svg" viewBox="0 0 716 692"><g fill="none" fill-rule="evenodd" transform="translate(0 .871456)"><rect width="662" height="662" y="29.1285442" fill="#C7D2FE" fill-rule="nonzero" rx="331"/><ellipse cx="196.193" cy="588.767544" fill="#FF6242" fill-rule="nonzero" rx="154.013" ry="96.227"/><ellipse cx="196.193" cy="588.767544" stroke="#070808" stroke-width="6" rx="154.013" ry="96.227"/><path fill="#EDC092" fill-rule="nonzero" stroke="#45413C" stroke-linecap="round" stroke-linejoin="round" d="m183.827 427.514544-22.379 71.153c-5.013564 15.946566-2.133493 33.327518 7.755659 46.804664 9.889151 13.477146 25.605218 21.439405 42.321341 21.441336h0c27.484745-.002531 50.315558-21.202728 52.351-48.612l6.512-87.778-86.561-3.009Z"/><path fill="#E2AE79" fill-rule="nonzero" d="M161.448 498.667544s45.713 18.015 74.032 2.39c28.319-15.625 37.108-43.943 37.108-43.943l-10.742-26.367-84.958-3.906-15.44 71.826Z"/><path stroke="#070808" stroke-width="6" d="m183.827 427.514544-22.379 71.153c-5.013564 15.946566-2.133493 33.327518 7.755659 46.804664 9.889151 13.477146 25.605218 21.439405 42.321341 21.441336 27.484745-.002531 50.315558-21.202728 52.351-48.612l6.512-87.778-86.561-3.009Z"/><path fill="#2A170D" fill-rule="nonzero" d="M142.232 249.893544c-43.4609438 0-78.693 35.232056-78.693 78.693 8.081 9.845 2.353 21.836 6.567 31.477-14.3902466 32.979841-4.5777626 71.51942 23.8318353 93.602078 28.4095977 22.082659 68.1787317 22.082659 96.5883297 0 28.409598-22.082658 38.222082-60.622237 23.831835-93.602078 4.340467-9.925855 6.576498-20.643617 6.567-31.477 0-43.460944-35.232056-78.693-78.693-78.693Z"/><path fill="#422617" fill-rule="nonzero" d="M161.919 429.693544c-43.461 0-74.7-15.542-73.86-59 1-51.945 44.455-40.755 44.455-51.95 0-18.22-6.793-58.638-4.743-89.895-38.739.937-76.517 13.4-85.453 44.681-5.406 18.92 11.731 44.38 24.575 58.1 3.393 12.726-15.363 13.3 3.213 28.427-15.8796234 36.357049-2.2077433 78.849204 31.893497 99.124876 34.101241 20.275671 77.963274 11.99162 102.320503-19.324876-11.164 6.081-28.795-10.163-42.401-10.163Z"/><path stroke="#070808" stroke-width="6" d="M220.925 328.586544c0-43.461-37.514-63.307-72.106-89.617-41.4-31.493-154.507 14.4-85.28 89.617 19.006 20.65-22.13 7.509 6.567 31.477-14.3902466 32.979841-4.5777626 71.51942 23.8318353 93.602078 28.4095977 22.082659 68.1787317 22.082659 96.5883297 0 28.409598-22.082658 38.222082-60.622237 23.831835-93.602078 4.340467-9.925855 6.576498-20.643617 6.567-31.477Z"/><path fill="#EDC092" fill-rule="nonzero" stroke="#45413C" stroke-linecap="round" stroke-linejoin="round" d="M130.7 268.166544h195.784v109.14c0 54.064259-43.827741 97.892-97.892 97.892h0c-54.064259 0-97.892-43.827741-97.892-97.892v-109.14Z"/><path fill="#E2AE79" fill-rule="nonzero" d="M147.6 316.173544s25.479 11.245 72.5 5.837c43.844-5.043 79.958-23.92 79.958-23.92s25.154 15.509 25.154 24.519c10.94-3.861 16.088-57.273 16.088-57.273l-39.254-7.078s-153.162 32.175-154.446 57.915Zm94.213 139.074c-80.982 9-108.082-72.207-108.082-72.207-.939 1.3-1.779 2.611-2.557 3.931 4.971969 50.074844 47.095927 88.224966 97.417 88.227002 36.999502.007869 70.841716-20.846562 87.468-53.900002l2.39-13.674s-6.101 39.786-76.636 47.623Z"/><path stroke="#070808" stroke-width="6" d="M130.7 268.166544h195.784v109.14c0 54.064259-43.827741 97.892-97.892 97.892-54.064259 0-97.892-43.827741-97.892-97.892v-109.14Z"/><path fill="#EFDD5C" fill-rule="nonzero" d="M291.94 217.310544s-15.8 29.978 2.277 57.676c6.026 9.232 29.147 10.364 31.594 33.35 2.951 27.718 52.813-54.327 3.511-87.325-9.342-6.252-34.274-34.003-37.382-3.701Z"/><path fill="#2A170D" fill-rule="nonzero" d="M291.94 217.310544s-15.8 29.978 2.277 57.676c6.026 9.232 29.147 10.364 31.594 33.35 2.951 27.718 52.813-54.327 3.511-87.325-9.342-6.252-34.274-34.003-37.382-3.701Z"/><path stroke="#070808" stroke-linecap="round" stroke-linejoin="round" stroke-width="6" d="M291.94 217.310544s-15.8 29.978 2.277 57.676c6.026 9.232 29.147 10.364 31.594 33.35 2.951 27.718 50.806-51.652 3.511-87.325-8.974-6.768-34.274-34.003-37.382-3.701Z"/><path fill="#422617" fill-rule="nonzero" d="M132.514 318.748544c60.256-1.035 122.615-11.576 174.428-49.906 15.169-11.221 23.607-43.391 7.529-62.41-63.71-75.364-162.018-17.959-181.93 14.186-20.582 33.227-28.341 67.119-.027 98.13Z"/><path fill="#2A170D" fill-rule="nonzero" d="M319.245 213.838544c-1.843 12.168-7.838 23.426-15.614 29.179-45.921 33.97-100.125 46.111-153.807 49.157-15.564485.992026-29.94697-8.311279-35.424-22.914-.03-.081-.059-.162-.088-.243-10.1 11.222-9.274 35.124 18.2 49.731 60.256-1.035 122.615-11.576 174.428-49.906 13.34-9.867 21.466-35.927 12.305-55.004Z"/><path stroke="#070808" stroke-linecap="round" stroke-linejoin="round" stroke-width="6" d="M130.684 317.605544c4.571 4.473 129.772-5.129 176.258-48.763 13.758-12.913 23.607-43.391 7.529-62.41-63.71-75.364-162.018-17.959-181.93 14.186-6.528 10.538-12.869 22.215-16.8 34.268"/><path stroke="#070808" stroke-linecap="round" stroke-width="6" d="M312.911 330.436544s-8.306-10.993-22.924-10.438"/><ellipse cx="299.096441" cy="344.517415" fill="#070808" fill-rule="nonzero" rx="5.231" ry="9.231" transform="rotate(-3.808 299.096441 344.517415)"/><path stroke="#070808" stroke-linecap="round" stroke-linejoin="round" stroke-width="6" d="m262.29 342.767544 19.378 30.808-20.884 5.221"/><path stroke="#070808" stroke-linecap="round" stroke-width="6" d="M196.874 341.828544s7.917-11.276 22.545-11.233"/><ellipse cx="217.126754" cy="354.0657" fill="#070808" fill-rule="nonzero" rx="5.231" ry="9.231" transform="rotate(-11.448 217.126754 354.0657)"/><path stroke="#070808" stroke-linecap="round" stroke-linejoin="round" stroke-width="6" d="M236.115 416.267544s19.848-26.777 48.077-11.689m7.748-187.268s-6.727 35.62-60.392 38.494"/><path fill="#EDC092" fill-rule="nonzero" stroke="#45413C" stroke-linecap="round" stroke-linejoin="round" d="M145.173 371.815544c-25.676 10.062-45.588-14.937-45.106-26.023 3.123-71.822 47.37-24.209 47.37-24.209"/><path stroke="#070808" stroke-linecap="round" stroke-width="6" d="M145.173 371.815544c-31.941 15.745-53.086-28.1-46.364-45.311 17.116-43.808 48.628-4.921 48.628-4.921"/><rect width="274.247" height="211.69" x="424.245" y="34.3075442" fill="#A5B4FD" fill-rule="nonzero" rx="43.906"/><rect width="274.247" height="211.69" x="438.249" y="17.8305442" fill="#818CF8" fill-rule="nonzero" rx="43.906"/><rect width="274.247" height="211.69" x="438.249" y="17.8305442" stroke="#070808" stroke-width="6" rx="43.906"/><circle cx="448.449" cy="278.350544" r="23.449" stroke="#070808" stroke-width="6"/><circle cx="407.254" cy="321.652544" r="14.491" stroke="#070808" stroke-width="6"/><rect width="179.601" height="50.157" x="482.217" y="143.182544" fill="#FFF" fill-rule="nonzero" rx="11.309"/><path fill="#E4E4E4" fill-rule="nonzero" d="M505.2 182.249544c-6.24595-.000552-11.309-5.06405-11.309-11.31v-27.538c0-.074.01-.146.011-.219h-.375c-6.245788 0-11.309 5.063212-11.309 11.309v27.537c0 2.999333 1.191481 5.875822 3.312329 7.996671 2.120849 2.120849 4.997338 3.312329 7.996671 3.312329h156.981c6.159337.001074 11.184989-4.930736 11.3-11.089l-156.608.001Z"/><rect width="179.601" height="50.157" x="482.217" y="143.182544" stroke="#070808" stroke-width="6" rx="11.309"/><circle cx="518.96" cy="166.723544" r="8.352" fill="#070808" fill-rule="nonzero"/><circle cx="545.923" cy="166.723544" r="8.352" fill="#070808" fill-rule="nonzero"/><circle cx="572.887" cy="166.723544" r="8.352" fill="#070808" fill-rule="nonzero"/><circle cx="599.85" cy="166.723544" r="8.352" fill="#070808" fill-rule="nonzero"/><circle cx="626.814" cy="166.723544" r="8.352" fill="#070808" fill-rule="nonzero"/><path stroke="#070808" stroke-linecap="round" stroke-width="6" d="M486.7 117.705544s83.7-13.628 72.561-44.2949998c-9.356-25.765-33.007-6.855-32.185-.742 5.737 42.6819998 71.677 47.5779998 83.935 14.035 16.826-46.042-18.994-42.262-12.311-18.906s37.895-17.743 44.579 16.888"/><path fill="#5046E6" fill-rule="nonzero" d="M554.98 363.528544c.018462-2.375056.750088-4.689781 2.1-6.644 1.237067-1.929884 2.772486-3.651281 4.549-5.1 1.682242-1.340481 3.207889-2.866464 4.548-4.549 1.282888-1.445006 2.025041-3.290139 2.1-5.221.089448-1.646491-.617383-3.235744-1.9-4.272-1.546047-1.085299-3.414499-1.614106-5.3-1.5-4.429333 0-7.567 2.346334-9.413 7.039l-9.334-5.379c1.46435-3.761165 4.116764-6.941322 7.554-9.057 3.482074-2.142479 7.500928-3.252181 11.589-3.2 4.507701-.097251 8.909922 1.36992 12.458 4.152 3.49445 2.738535 5.453381 6.994491 5.261 11.43.01728 2.13563-.456588 4.246653-1.385 6.17-.845737 1.786167-1.967101 3.428224-3.323 4.866-1.292 1.344-2.583667 2.610667-3.875 3.8-1.226572 1.113092-2.33969 2.345126-3.323 3.678-.858664 1.08449-1.344091 2.417311-1.384 3.8l-10.922-.013Zm10.2 17.64c-2.262373 2.244286-5.794369 2.579642-8.438689.801237-2.644319-1.778405-3.665706-5.176086-2.440311-8.117778 1.225395-2.941693 4.356852-4.609459 7.481713-3.984647 3.124862.624812 5.374259 3.368474 5.374287 6.555188.024857 1.786464-.688641 3.503996-1.972 4.747l-.005-.001ZM311 46.1835442c.020512-2.8952159.911062-5.7173807 2.556-8.1 1.507308-2.3526837 3.378215-4.4514204 5.543-6.218 2.050679-1.6335521 3.910448-3.4933212 5.544-5.544 1.56205-1.7615202 2.464691-4.0103469 2.554-6.363.109657-2.0060637-.750797-3.9427356-2.313-5.206-1.883856-1.3243536-4.161367-1.970236-6.46-1.832-5.4 0-9.224333 2.8603333-11.473 8.581l-11.377-6.556c1.785185-4.5845527 5.018316-8.46093921 9.208-11.03999999 4.243781-2.61105796 9.141704-3.96350061 14.124-3.9 5.494621-.11864608 10.860625 1.67013988 15.185 5.062 4.272667 3.374 6.409 8.01666669 6.409 13.92799999.020983 2.602783-.556191 5.1756046-1.687 7.52-1.031108 2.1760279-2.397404 4.1767123-4.049 5.929-1.576 1.6393333-3.150667 3.182-4.724 4.628-1.495347 1.3563076-2.85203 2.8580383-4.05 4.483-1.045595 1.3209204-1.636908 2.9440497-1.686 4.628H311Zm12.437 21.5c-2.757298 2.7331511-7.060398 3.1402789-10.281362.9727471-3.220964-2.1675318-4.464358-6.3071446-2.97083-9.8907434 1.493527-3.5835989 5.308772-5.6149355 9.115733-4.8534563 3.806962.7614793 6.547296 4.1040815 6.547459 7.9864526.028328 2.1782751-.844089 4.2715687-2.411 5.785Z"/></g></svg>
