<svg viewBox="0 0 48 48"><g id="Page-1" stroke="none" stroke-width="1" fill="none" fill-rule="evenodd"><g id="horizon.min" transform="translate(-0.000083, 0.000200)" fill="currentColor" fill-rule="nonzero"><path d="M8.40008292,42.2568 C3.0579407,37.6963716 -0.0129932173,31.0207462 4.13260242e-05,23.9968 C4.13260242e-05,17.3668 2.69008292,11.3668 7.03008292,7.02680001 C16.2300829,-2.17019999 31.0810829,-2.36319999 40.5180829,6.58980001 C49.9540829,15.5438 50.5400829,30.3848 41.8380829,40.0538 C33.1360829,49.7238 18.3160829,50.7008 8.42008292,42.2568 L8.40008292,42.2568 L8.40008292,42.2568 Z M6.47008292,25.4768 C9.12008292,23.1268 11.0000829,19.9968 16.0000829,19.9968 C24.0000829,19.9968 24.0000829,27.9968 32.0000829,27.9968 C37.0000829,27.9968 38.8800829,24.8668 41.5400829,22.5168 C40.7230829,12.8298 32.2070829,5.63980001 22.5200829,6.45680001 C12.8330829,7.27380001 5.64308292,15.7898 6.46008292,25.4768 L6.47008292,25.4768 Z" id="Shape"></path></g></g></svg>
