<svg viewBox="0 0 1381 360" {{ $attributes }}><defs><path id="a" d="M72 0h216c39.764502 0 72 32.235498 72 72v216c0 39.764502-32.235498 72-72 72H72c-39.764502 0-72-32.235498-72-72V72C0 32.235498 32.235498 0 72 0Z"/><path id="c" d="M0 0h360v360H0z"/><path id="e" d="M42.1875 56.25 84.375 42.1875 126.5625 56.25 112.5 98.4375l34.405766 137.623064c4.741674 18.966695-2.006058 38.95717-17.272373 51.170221l-29.6410168 23.712814c-9.1304663 7.304373-22.1042861 7.304373-31.2347524 0l-29.6410171-23.712814c-15.2663145-12.213051-22.0140464-32.203526-17.2723726-51.170221L56.25 98.4375 42.1875 56.25Z"/><path id="h" d="M126.5625 0 84.375 42.1875 42.1875 0z"/><path id="j" d="M168.75 0v84.375L84.375 42.1875 126.5625 0H168.75ZM42.1875 0 84.375 42.1875 0 84.375V0h42.1875Z"/><linearGradient id="d" x1="50%" x2="50%" y1="0%" y2="100%"><stop offset="0%" stop-color="#FFF"/><stop offset="100%"/></linearGradient><linearGradient id="f" x1="50%" x2="50%" y1="0%" y2="100%"><stop offset="0%" stop-color="#FFF"/><stop offset="100%"/></linearGradient><linearGradient id="i" x1="50%" x2="50%" y1="0%" y2="100%"><stop offset="0%" stop-color="#FFF" stop-opacity=".25"/><stop offset="100%" stop-opacity=".25"/></linearGradient><linearGradient id="k" x1="50%" x2="50%" y1="0%" y2="100%"><stop offset="0%" stop-color="#FFF" stop-opacity=".5"/><stop offset="100%" stop-opacity=".5"/></linearGradient><filter id="g" width="455.6%" height="455.6%" x="-177.8%" y="-177.8%" filterUnits="objectBoundingBox"><feGaussianBlur in="SourceGraphic" stdDeviation="50"/></filter></defs><g fill="none" fill-rule="evenodd"><mask id="b" fill="#fff"><use xlink:href="#a"/></mask><path stroke="#979797" d="M288 .5c19.74418 0 37.61918 8.0029101 50.558135 20.9418651C351.49709 34.3808202 359.5 52.2558202 359.5 72v216c0 19.74418-8.00291 37.61918-20.941865 50.558135S307.74418 359.5 288 359.5H72c-19.7441798 0-37.6191798-8.00291-50.5581349-20.941865C8.5029101 325.61918.5 307.74418.5 288V72c0-19.7441798 8.0029101-37.6191798 20.9418651-50.5581349C34.3808202 8.5029101 52.2558202.5 72 .5Z"/><g mask="url(#b)"><use xlink:href="#c" fill="#818CF8"/><use xlink:href="#c" fill="url(#d)" fill-opacity=".05"/><g transform="translate(95.625)"><use xlink:href="#e" fill="#302E81"/><use xlink:href="#e" fill="url(#f)" fill-opacity=".25"/></g><path fill="#000" d="M126.5625 0v84.375L84.375 42.1875 105.46875 0h21.09375ZM63.28125 0 84.375 42.1875 42.1875 84.375V0h21.09375Z" filter="url(#g)" transform="translate(95.625)"/><g transform="translate(95.625)"><use xlink:href="#h" fill="#1F3A8A"/><use xlink:href="#h" fill="url(#i)" fill-opacity=".5"/></g><g transform="translate(95.625)"><use xlink:href="#j" fill="#EEF2FF"/><use xlink:href="#j" fill="url(#k)" fill-opacity=".1"/></g></g><g fill-rule="nonzero"><path fill="#FFF" d="M533 272.050341h110.211071v-20.752212h-86.9349416V85H533zm222.946059 0h21.032647v-93.1045175c0-32.8109294-23.837-45.7109529-52.4414-45.7109529-22.154388 0-39.541377 7.2913176-54.124012 22.4348235l9.815235 14.5826353c12.058718-12.9000235 25.239177-18.7891647 41.504424-18.7891647 19.630471 0 34.213106 10.3761059 34.213106 28.6044v24.3978703c-10.936977-12.619588-26.360918-18.508729-44.869647-18.508729-22.995694 0-47.393565 14.3022-47.393565 44.589212 0 29.445706 24.397871 44.869647 47.393565 44.869647 18.228294 0 33.652235-6.450012 44.869647-18.789165v15.423941Zm0-28.6044c-8.132624 11.217412-22.434824 16.826118-37.297894 16.826118-19.630471 0-33.3718-12.339153-33.3718-29.445706 0-17.386988 13.741329-29.726141 33.3718-29.726141 14.86307 0 29.16527 5.608706 37.297894 16.826117v25.519612Zm63.097941 28.6044h21.032647v-95.9088704c6.169577-10.9369765 23.837-21.5935177 36.737024-21.5935177 3.365223 0 5.889141.2804353 8.413058.8413059v-21.5935176c-18.508729 0-34.213105 10.3761059-45.150082 24.6783059v-21.873953H819.044V272.050341Zm177.235106 0h21.032647v-93.1045175c0-32.8109294-23.837-45.7109529-52.4414-45.7109529-22.154388 0-39.541377 7.2913176-54.124012 22.4348235l9.815235 14.5826353c12.058718-12.9000235 25.239177-18.7891647 41.504424-18.7891647 19.630471 0 34.213106 10.3761059 34.213106 28.6044v24.3978703c-10.936977-12.619588-26.360918-18.508729-44.869647-18.508729-22.995694 0-47.393565 14.3022-47.393565 44.589212 0 29.445706 24.397871 44.869647 47.393565 44.869647 18.228294 0 33.652235-6.450012 44.869647-18.789165v15.423941Zm0-28.6044c-8.132624 11.217412-22.434824 16.826118-37.297894 16.826118-19.630471 0-33.3718-12.339153-33.3718-29.445706 0-17.386988 13.741329-29.726141 33.3718-29.726141 14.86307 0 29.16527 5.608706 37.297894 16.826117v25.519612Z"/><path fill="#818CF8" d="M1059.377047 272.050341h21.032647V251.859c10.095671 13.741329 26.641353 23.556565 45.710953 23.556565 35.334847 0 60.293588-26.921789 60.293588-70.95013 0-43.187035-24.958741-71.2305644-60.293588-71.2305644-18.508729 0-34.773976 8.9739294-45.710953 23.837V85h-21.032647v187.050341Zm21.032647-36.737023v-61.4153298c7.291318-11.7782823 23.837-21.8739529 40.382682-21.8739529 27.482659 0 43.747906 22.4348235 43.747906 52.4413997 0 30.006577-16.265247 52.160965-43.747906 52.160965-16.545682 0-33.091364-9.5348-40.382682-21.313082Zm150.593753-118.0632592c7.852188 0 14.3022-6.1695764 14.3022-14.0217647 0-7.8521882-6.450012-14.30219998-14.3022-14.30219998-7.571753 0-14.021765 6.45001178-14.021765 14.30219998 0 7.8521883 6.450012 14.0217647 14.021765 14.0217647Zm-10.376106 154.8002822h21.032647V136.6000941h-21.032647V272.050341Zm56.64793 0h103.200188v-18.228294h-76.2784l75.156659-101.2371411v-15.9848118h-102.078447v18.5087294h74.595788l-74.595788 100.6762705z"/></g></g></svg>
