<svg viewBox="0 0 1380 360"><defs><path id="la" d="M72 0h216c39.764502 0 72 32.235498 72 72v216c0 39.764502-32.235498 72-72 72H72c-39.764502 0-72-32.235498-72-72V72C0 32.235498 32.235498 0 72 0Z"/><path id="lc" d="M0 0h360v360H0z"/><path id="le" d="M42.1875 56.25 84.375 42.1875 126.5625 56.25 112.5 98.4375l34.405766 137.623064c4.741674 18.966695-2.006058 38.95717-17.272373 51.170221l-29.6410168 23.712814c-9.1304663 7.304373-22.1042861 7.304373-31.2347524 0l-29.6410171-23.712814c-15.2663145-12.213051-22.0140464-32.203526-17.2723726-51.170221L56.25 98.4375 42.1875 56.25Z"/><path id="lh" d="M126.5625 0 84.375 42.1875 42.1875 0z"/><path id="lj" d="M168.75 0v84.375L84.375 42.1875 126.5625 0H168.75ZM42.1875 0 84.375 42.1875 0 84.375V0h42.1875Z"/><linearGradient id="ld" x1="50%" x2="50%" y1="0%" y2="100%"><stop offset="0%" stop-color="#FFF"/><stop offset="100%"/></linearGradient><linearGradient id="lf" x1="50%" x2="50%" y1="0%" y2="100%"><stop offset="0%" stop-color="#FFF"/><stop offset="100%"/></linearGradient><linearGradient id="li" x1="50%" x2="50%" y1="0%" y2="100%"><stop offset="0%" stop-color="#FFF" stop-opacity=".25"/><stop offset="100%" stop-opacity=".25"/></linearGradient><linearGradient id="lk" x1="50%" x2="50%" y1="0%" y2="100%"><stop offset="0%" stop-color="#FFF" stop-opacity=".5"/><stop offset="100%" stop-opacity=".5"/></linearGradient><filter id="lg" width="455.6%" height="455.6%" x="-177.8%" y="-177.8%" filterUnits="objectBoundingBox"><feGaussianBlur in="SourceGraphic" stdDeviation="50"/></filter></defs><g fill="none" fill-rule="evenodd"><mask id="lb" fill="#fff"><use xlink:href="#la"/></mask><path stroke="#979797" d="M288 .5c19.74418 0 37.61918 8.0029101 50.558135 20.9418651C351.49709 34.3808202 359.5 52.2558202 359.5 72v216c0 19.74418-8.00291 37.61918-20.941865 50.558135S307.74418 359.5 288 359.5H72c-19.7441798 0-37.6191798-8.00291-50.5581349-20.941865C8.5029101 325.61918.5 307.74418.5 288V72c0-19.7441798 8.0029101-37.6191798 20.9418651-50.5581349C34.3808202 8.5029101 52.2558202.5 72 .5Z"/><g mask="url(#lb)"><use xlink:href="#lc" fill="#818CF8"/><use xlink:href="#lc" fill="url(#ld)" fill-opacity=".05"/><g transform="translate(95.625)"><use xlink:href="#le" fill="#302E81"/><use xlink:href="#le" fill="url(#lf)" fill-opacity=".25"/></g><path fill="#000" d="M126.5625 0v84.375L84.375 42.1875 105.46875 0h21.09375ZM63.28125 0 84.375 42.1875 42.1875 84.375V0h21.09375Z" filter="url(#lg)" transform="translate(95.625)"/><g transform="translate(95.625)"><use xlink:href="#lh" fill="#1F3A8A"/><use xlink:href="#lh" fill="url(#li)" fill-opacity=".5"/></g><g transform="translate(95.625)"><use xlink:href="#lj" fill="#EEF2FF"/><use xlink:href="#lj" fill="url(#lk)" fill-opacity=".1"/></g></g><g fill-rule="nonzero"><path fill="#302E81" d="M533 272.624448h110.149239v-20.815906h-86.8861682V85H533zm222.820979 0h21.020848v-93.3902801c0-32.9116348-23.823627-45.8512518-52.411979-45.8512518-22.141959 0-39.519193 7.3136966-54.093647 22.5036818l9.809729 14.6273933c12.051952-12.9396171 25.225016-18.8468336 41.481138-18.8468336 19.619457 0 34.193911 10.4079529 34.193911 28.6921944v24.472754c-10.93084-12.658321-26.346128-18.565538-44.844473-18.565538-22.982793 0-47.366976 14.346098-47.366976 44.726068C663.60953 260.528719 687.993713 276 710.976506 276c18.218067 0 33.633355-6.469809 44.844473-18.846834v15.471282Zm0-28.692195c-8.12806 11.251841-22.422236 16.877762-37.276968 16.877762-19.619458 0-33.353078-12.377025-33.353078-29.536083 0-17.440353 13.73362-29.817378 33.353078-29.817378 14.854732 0 29.148908 5.62592 37.276968 16.877761v25.597938Zm63.062542 28.692195h21.020847v-96.2032403c6.166115-10.970545 23.823627-21.6597939 36.716413-21.6597939 3.363335 0 5.885837.2812961 8.408339.8438881v-21.6597938c-18.498346 0-34.193912 10.4079529-45.124752 24.7540501v-21.9410899h-21.020847V272.624448Zm177.135672 0h21.020847v-93.3902801c0-32.9116348-23.823627-45.8512518-52.411979-45.8512518-22.141959 0-39.519193 7.3136966-54.093647 22.5036818l9.809729 14.6273933c12.051952-12.9396171 25.225016-18.8468336 41.481138-18.8468336 19.619458 0 34.193912 10.4079529 34.193912 28.6921944v24.472754c-10.930841-12.658321-26.346129-18.565538-44.844474-18.565538-22.982793 0-47.366976 14.346098-47.366976 44.726068 0 29.536083 24.384183 45.007364 47.366976 45.007364 18.218067 0 33.633355-6.469809 44.844474-18.846834v15.471282Zm0-28.692195c-8.128061 11.251841-22.422237 16.877762-37.276969 16.877762-19.619458 0-33.353078-12.377025-33.353078-29.536083 0-17.440353 13.73362-29.817378 33.353078-29.817378 14.854732 0 29.148908 5.62592 37.276969 16.877761v25.597938Z"/><path fill="#818CF8" d="M1059.081734 272.624448h21.020847v-20.253314C1090.192588 266.154639 1106.728987 276 1125.787889 276c35.315023 0 60.259762-27.004418 60.259762-71.167894 0-43.3195876-24.944739-71.4491899-60.259762-71.4491899-18.498346 0-34.754467 9.0014727-45.685308 23.910162V85h-21.020847v187.624448Zm21.020847-36.849779v-61.6038295c7.287227-11.814433 23.823627-21.9410899 40.360027-21.9410899 27.46724 0 43.723362 22.5036819 43.723362 52.6023564 0 30.098675-16.256122 52.32106-43.723362 52.32106-16.5364 0-33.0728-9.564064-40.360027-21.378497Zm150.509265-118.4256263c7.847783 0 14.294177-6.1885125 14.294177-14.0648012 0-7.8762886-6.446394-14.34609717-14.294177-14.34609717-7.567505 0-14.013898 6.46980857-14.013898 14.34609717 0 7.8762887 6.446393 14.0648012 14.013898 14.0648012Zm-10.370284 155.2754053h21.020847V136.7584683h-21.020847V272.624448Zm56.616148 0H1380v-18.284242h-76.235606l75.114494-101.5478643v-16.0338734H1276.85771v18.5655376h74.553938L1276.85771 256.309278z"/></g></g></svg>
