<svg viewBox="0 0 360 360"><defs><path id="lia" d="M72 0h216c39.764502 0 72 32.235498 72 72v216c0 39.764502-32.235498 72-72 72H72c-39.764502 0-72-32.235498-72-72V72C0 32.235498 32.235498 0 72 0Z"/><path id="lic" d="M0 0h360v360H0z"/><path id="lie" d="M42.1875 56.25 84.375 42.1875 126.5625 56.25 112.5 98.4375l34.405766 137.623064c4.741674 18.966695-2.006058 38.95717-17.272373 51.170221l-29.6410168 23.712814c-9.1304663 7.304373-22.1042861 7.304373-31.2347524 0l-29.6410171-23.712814c-15.2663145-12.213051-22.0140464-32.203526-17.2723726-51.170221L56.25 98.4375 42.1875 56.25Z"/><path id="lih" d="M126.5625 0 84.375 42.1875 42.1875 0z"/><path id="lij" d="M168.75 0v84.375L84.375 42.1875 126.5625 0H168.75ZM42.1875 0 84.375 42.1875 0 84.375V0h42.1875Z"/><linearGradient id="lid" x1="50%" x2="50%" y1="0%" y2="100%"><stop offset="0%" stop-color="#FFF"/><stop offset="100%"/></linearGradient><linearGradient id="lif" x1="50%" x2="50%" y1="0%" y2="100%"><stop offset="0%" stop-color="#FFF"/><stop offset="100%"/></linearGradient><linearGradient id="lii" x1="50%" x2="50%" y1="0%" y2="100%"><stop offset="0%" stop-color="#FFF" stop-opacity=".25"/><stop offset="100%" stop-opacity=".25"/></linearGradient><linearGradient id="lik" x1="50%" x2="50%" y1="0%" y2="100%"><stop offset="0%" stop-color="#FFF" stop-opacity=".5"/><stop offset="100%" stop-opacity=".5"/></linearGradient><filter id="lig" width="455.6%" height="455.6%" x="-177.8%" y="-177.8%" filterUnits="objectBoundingBox"><feGaussianBlur in="SourceGraphic" stdDeviation="50"/></filter></defs><g fill="none" fill-rule="evenodd"><mask id="lib" fill="#fff"><use xlink:href="#lia"/></mask><path stroke="#979797" d="M288 .5c19.74418 0 37.61918 8.0029101 50.558135 20.9418651C351.49709 34.3808202 359.5 52.2558202 359.5 72v216c0 19.74418-8.00291 37.61918-20.941865 50.558135S307.74418 359.5 288 359.5H72c-19.7441798 0-37.6191798-8.00291-50.5581349-20.941865C8.5029101 325.61918.5 307.74418.5 288V72c0-19.7441798 8.0029101-37.6191798 20.9418651-50.5581349C34.3808202 8.5029101 52.2558202.5 72 .5Z"/><g mask="url(#lib)"><use xlink:href="#lic" fill="#818CF8"/><use xlink:href="#lic" fill="url(#lid)" fill-opacity=".05"/><g transform="translate(95.625)"><use xlink:href="#lie" fill="#302E81"/><use xlink:href="#lie" fill="url(#lif)" fill-opacity=".25"/></g><path fill="#000" d="M126.5625 0v84.375L84.375 42.1875 105.46875 0h21.09375ZM63.28125 0 84.375 42.1875 42.1875 84.375V0h21.09375Z" filter="url(#lig)" transform="translate(95.625)"/><g transform="translate(95.625)"><use xlink:href="#lih" fill="#1F3A8A"/><use xlink:href="#lih" fill="url(#lii)" fill-opacity=".5"/></g><g transform="translate(95.625)"><use xlink:href="#lij" fill="#EEF2FF"/><use xlink:href="#lij" fill="url(#lik)" fill-opacity=".1"/></g></g></g></svg>
