<svg viewBox="0 0 341 344" {{ $attributes }}><defs><path id="a" d="M68.2 0h204.6C310.46582 0 341 30.8028092 341 68.8v206.4c0 37.997191-30.53418 68.8-68.2 68.8H68.2C30.5341801 344 0 313.197191 0 275.2V68.8C0 30.8028092 30.5341801 0 68.2 0Z"/><path id="c" d="M0 0h341v344H0z"/><path id="e" d="M39.9609375 53.75 79.921875 40.3125 119.882812 53.75 106.5625 94.0625l32.296755 130.323563c4.675178 18.865235-2.005645 38.730357-17.130471 50.936668l-26.1061848 21.068686c-9.1614854 7.393668-22.239963 7.393668-31.4014484 0l-26.1061849-21.068686c-15.1248256-12.206311-21.8056492-32.071433-17.1304711-50.936668L53.28125 94.0625 39.9609375 53.75Z"/><path id="h" d="M119.882813 0 79.921875 40.3125 39.9609375 0z"/><path id="j" d="M159.84375 0v80.625L79.921875 40.3125 119.882812 0h39.960938ZM39.9609375 0 79.921875 40.3125 0 80.625V0h39.9609375Z"/><linearGradient id="d" x1="50%" x2="50%" y1="0%" y2="100%"><stop offset="0%" stop-color="#FFF"/><stop offset="100%"/></linearGradient><linearGradient id="f" x1="50%" x2="50%" y1="0%" y2="100%"><stop offset="0%" stop-color="#FFF"/><stop offset="100%"/></linearGradient><linearGradient id="i" x1="50%" x2="50%" y1="0%" y2="100%"><stop offset="0%" stop-color="#FFF" stop-opacity=".25"/><stop offset="100%" stop-opacity=".25"/></linearGradient><linearGradient id="k" x1="50%" x2="50%" y1="0%" y2="100%"><stop offset="0%" stop-color="#FFF" stop-opacity=".5"/><stop offset="100%" stop-opacity=".5"/></linearGradient><filter id="g" width="475.4%" height="472.1%" x="-187.7%" y="-186%" filterUnits="objectBoundingBox"><feGaussianBlur in="SourceGraphic" stdDeviation="50"/></filter></defs><g fill="none" fill-rule="evenodd"><mask id="b" fill="#fff"><use xlink:href="#a"/></mask><path stroke="#979797" d="M272.8.5c18.694341 0 35.618689 7.64438102 47.869584 20.0030551C332.922057 32.8633211 340.5 49.9389714 340.5 68.8v206.4c0 18.861029-7.577943 35.936679-19.830416 48.296945C308.418689 335.855619 291.494341 343.5 272.8 343.5H68.2c-18.6943413 0-35.6186892-7.644381-47.8695841-20.003055C8.07794285 311.136679.5 294.061029.5 275.2V68.8c0-18.8610286 7.57794285-35.9366789 19.8304159-48.2969449C32.5813108 8.14438102 49.5056587.5 68.2.5Z"/><g mask="url(#b)"><use xlink:href="#c" fill="#818CF8"/><use xlink:href="#c" fill="url(#d)" fill-opacity=".05"/><g transform="translate(90.578125)"><use xlink:href="#e" fill="#302E81"/><use xlink:href="#e" fill="url(#f)" fill-opacity=".25"/></g><path fill="#000" d="M119.882812 0v80.625L79.921875 40.3125 99.9023437 0h19.9804683ZM59.9414062 0 79.921875 40.3125 39.9609375 80.625V0h19.9804687Z" filter="url(#g)" transform="translate(90.578125)"/><g transform="translate(90.578125)"><use xlink:href="#h" fill="#1F3A8A"/><use xlink:href="#h" fill="url(#i)" fill-opacity=".5"/></g><g transform="translate(90.578125)"><use xlink:href="#j" fill="#EEF2FF"/><use xlink:href="#j" fill="url(#k)" fill-opacity=".1"/></g></g></g></svg>
