<svg viewBox="0 0 452 288" version="1.1" xmlns="http://www.w3.org/2000/svg" xmlns:xlink="http://www.w3.org/1999/xlink">
    <title>Artboard</title>
    <defs>
        <rect id="path-1" x="0" y="0" width="140" height="180" rx="10"></rect>
        <filter x="-5.0%" y="-2.8%" width="110.0%" height="107.8%" filterUnits="objectBoundingBox" id="filter-2">
            <feOffset dx="0" dy="2" in="SourceAlpha" result="shadowOffsetOuter1"></feOffset>
            <feGaussianBlur stdDeviation="2" in="shadowOffsetOuter1" result="shadowBlurOuter1"></feGaussianBlur>
            <feColorMatrix values="0 0 0 0 0.188235294   0 0 0 0 0.180392157   0 0 0 0 0.505882353  0 0 0 0.05 0" type="matrix" in="shadowBlurOuter1"></feColorMatrix>
        </filter>
        <linearGradient x1="50%" y1="0%" x2="50%" y2="100%" id="linearGradient-3">
            <stop stop-color="#1D0024" offset="0%"></stop>
            <stop stop-color="#100014" offset="100%"></stop>
        </linearGradient>
        <circle id="path-4" cx="15" cy="15" r="15"></circle>
        <linearGradient x1="50%" y1="0%" x2="50%" y2="100%" id="linearGradient-6">
            <stop stop-color="#806A6A" offset="0%"></stop>
            <stop stop-color="#665654" offset="100%"></stop>
        </linearGradient>
        <path d="M19.5,4.8 C19.9888889,5.73333333 20.3555556,7.9 20.6,11.3 L0,11.3 C0.244444444,7.9 0.611111111,5.73333333 1.1,4.8 C1.83333333,3.4 4.9,1.8 10.3,0 C15.7,1.8 18.7666667,3.4 19.5,4.8 Z" id="path-7"></path>
        <linearGradient x1="50%" y1="100%" x2="50%" y2="0%" id="linearGradient-9">
            <stop stop-color="#E6864E" offset="0%"></stop>
            <stop stop-color="#E67240" offset="100%"></stop>
        </linearGradient>
        <path d="M6.01791485,2.47049654 C6.41791485,0.72049654 4.52120529,-0.622411028 2.56791485,0.29946888 C-2.03208515,2.47049654 0.704341901,5.5 2.4043419,5.3 C4.1043419,5.1 5.61791485,4.22049654 6.01791485,2.47049654 Z" id="path-10"></path>
        <linearGradient x1="50%" y1="100%" x2="50%" y2="0%" id="linearGradient-12">
            <stop stop-color="#E6864E" offset="0%"></stop>
            <stop stop-color="#E67240" offset="100%"></stop>
        </linearGradient>
        <linearGradient x1="50%" y1="0%" x2="50%" y2="100%" id="linearGradient-13">
            <stop stop-color="#FFD4B3" offset="0%"></stop>
            <stop stop-color="#FFDCC2" offset="100%"></stop>
        </linearGradient>
        <linearGradient x1="50%" y1="100%" x2="50%" y2="0%" id="linearGradient-14">
            <stop stop-color="#E6864E" offset="0%"></stop>
            <stop stop-color="#E57442" offset="100%"></stop>
        </linearGradient>
        <linearGradient x1="50%" y1="0%" x2="50%" y2="100%" id="linearGradient-15">
            <stop stop-color="#806A6A" offset="0%"></stop>
            <stop stop-color="#665654" offset="100%"></stop>
        </linearGradient>
        <circle id="path-16" cx="15" cy="15" r="15"></circle>
        <filter x="-258.9%" y="-181.6%" width="617.7%" height="463.2%" filterUnits="objectBoundingBox" id="filter-18">
            <feOffset dx="0" dy="7" in="SourceAlpha" result="shadowOffsetOuter1"></feOffset>
            <feGaussianBlur stdDeviation="6" in="shadowOffsetOuter1" result="shadowBlurOuter1"></feGaussianBlur>
            <feColorMatrix values="0 0 0 0 0   0 0 0 0 0   0 0 0 0 0.145098039  0 0 0 0.04 0" type="matrix" in="shadowBlurOuter1" result="shadowMatrixOuter1"></feColorMatrix>
            <feMerge>
                <feMergeNode in="shadowMatrixOuter1"></feMergeNode>
                <feMergeNode in="SourceGraphic"></feMergeNode>
            </feMerge>
        </filter>
        <linearGradient x1="50%" y1="0%" x2="50%" y2="100%" id="linearGradient-19">
            <stop stop-color="#F7B186" offset="0%"></stop>
            <stop stop-color="#FFC299" offset="100%"></stop>
        </linearGradient>
        <path d="M11,16.0783802 C9.16666667,17.4117135 7.33333333,18.4783802 5.5,18.4783802 C3.66666667,18.4783802 1.83333333,17.4117135 -1.45519152e-12,16.0783802 C1.51116528,15.6184603 2.2776717,14.9319052 2.29951926,14.0187147 C2.29907182,13.8559177 2.29831206,13.6247557 2.29723997,13.1906215 C2.29706975,13.1216925 2.29689165,13.0510699 2.29670568,12.9788484 C2.29369608,11.8148023 2.28879313,10.2792218 2.28193963,8.71878741 C0.848732777,6.86111857 1.37520642,4.68319391 1.82437176,4.73750876 C2.37543197,4.80414514 7.14573033,0.277384582 8.06073781,0.0457669268 C8.97574529,-0.185850728 11.3,0.562491237 11.7,2.65 C12.1,4.73750876 12.2671968,9.9992659 10.75,12.1 C10.3182564,12.6977989 9.6383436,12.9316164 8.71026175,12.8014526 C8.70900674,13.2383349 8.70638373,13.4835274 8.7,13.9783802 C8.71185408,14.9333043 9.47852075,15.6189291 11,16.0783802 Z" id="path-20"></path>
        <linearGradient x1="50%" y1="0%" x2="50%" y2="100%" id="linearGradient-22">
            <stop stop-color="#1D0024" offset="0%"></stop>
            <stop stop-color="#100014" offset="100%"></stop>
        </linearGradient>
        <linearGradient x1="50%" y1="0%" x2="50%" y2="100%" id="linearGradient-23">
            <stop stop-color="#1D0024" offset="0%"></stop>
            <stop stop-color="#100014" offset="100%"></stop>
        </linearGradient>
        <linearGradient x1="50%" y1="0%" x2="50%" y2="100%" id="linearGradient-24">
            <stop stop-color="#806A6A" offset="0%"></stop>
            <stop stop-color="#665654" offset="100%"></stop>
        </linearGradient>
        <path d="M1.9,0.5 L2.4,9.7 L0,9.7 L0.5,0.5 C0.811111111,0.166666667 1.04444444,0 1.2,0 C1.35555556,0 1.58888889,0.166666667 1.9,0.5 Z" id="path-25"></path>
        <path d="M2.01397472,2.36918539 L0.441426702,1.46060209 L0.5,0.5 C0.811111111,0.166666667 1.04444444,0 1.2,0 C1.35555556,0 1.58888889,0.166666667 1.9,0.5 L2.01397472,2.36918539 L2.01397472,2.36918539 Z" id="path-27"></path>
        <circle id="path-29" cx="15" cy="15" r="15"></circle>
        <linearGradient x1="50%" y1="0%" x2="50%" y2="100%" id="linearGradient-31">
            <stop stop-color="#FFD4B3" offset="0%"></stop>
            <stop stop-color="#FFDCC2" offset="100%"></stop>
        </linearGradient>
        <linearGradient x1="50%" y1="0%" x2="50%" y2="100%" id="linearGradient-32">
            <stop stop-color="#806A6A" offset="0%"></stop>
            <stop stop-color="#665654" offset="100%"></stop>
        </linearGradient>
        <linearGradient x1="50%" y1="100%" x2="50%" y2="0%" id="linearGradient-33">
            <stop stop-color="#E6864E" offset="0%"></stop>
            <stop stop-color="#E67240" offset="100%"></stop>
        </linearGradient>
        <circle id="path-34" cx="15" cy="15" r="15"></circle>
        <filter x="-258.9%" y="-181.6%" width="617.7%" height="463.2%" filterUnits="objectBoundingBox" id="filter-36">
            <feOffset dx="0" dy="7" in="SourceAlpha" result="shadowOffsetOuter1"></feOffset>
            <feGaussianBlur stdDeviation="6" in="shadowOffsetOuter1" result="shadowBlurOuter1"></feGaussianBlur>
            <feColorMatrix values="0 0 0 0 0   0 0 0 0 0   0 0 0 0 0.145098039  0 0 0 0.04 0" type="matrix" in="shadowBlurOuter1" result="shadowMatrixOuter1"></feColorMatrix>
            <feMerge>
                <feMergeNode in="shadowMatrixOuter1"></feMergeNode>
                <feMergeNode in="SourceGraphic"></feMergeNode>
            </feMerge>
        </filter>
        <linearGradient x1="50%" y1="0%" x2="50%" y2="100%" id="linearGradient-37">
            <stop stop-color="#FFD4B3" offset="0%"></stop>
            <stop stop-color="#FFDCC2" offset="100%"></stop>
        </linearGradient>
        <path d="M8.7,13.9783802 L8.7,14.021506 C8.71185408,14.9333043 9.47852075,15.6189291 11,16.0783802 C9.16666667,17.4117135 7.33333333,18.4783802 5.5,18.4783802 C3.66666667,18.4783802 1.83333333,17.4117135 -1.45519152e-12,16.0783802 C1.51116528,15.6184603 2.2776717,14.9319052 2.29951926,14.0187147 C2.29907182,13.8559177 2.29831206,13.6247557 2.29723997,13.1906215 C2.29706975,13.1216925 2.29689165,13.0510699 2.29670568,12.9788484 C2.18741903,12.994293 2.19631332,12.98444 2.29664845,12.9566685 C2.29369608,11.8148023 2.28879313,10.2792218 2.28193963,8.71878741 C0.848732777,6.86111857 1.37520642,4.68319391 1.82437176,4.73750876 C2.37543197,4.80414514 7.14573033,0.277384582 8.06073781,0.0457669268 C8.97574529,-0.185850728 11.3,0.562491237 11.7,2.65 C12.1,4.73750876 12.2671968,9.9992659 10.75,12.1 C10.3182564,12.6977989 9.6383436,12.9316164 8.71026175,12.8014526 C8.70900674,13.2383349 8.70638373,13.4835274 8.7,13.9783802 L8.7,13.9783802 Z" id="path-38"></path>
        <linearGradient x1="50%" y1="100%" x2="50%" y2="0%" id="linearGradient-40">
            <stop stop-color="#E6864E" offset="0%"></stop>
            <stop stop-color="#E67240" offset="100%"></stop>
        </linearGradient>
        <linearGradient x1="50%" y1="100%" x2="50%" y2="0%" id="linearGradient-41">
            <stop stop-color="#E6864E" offset="0%"></stop>
            <stop stop-color="#E67240" offset="100%"></stop>
        </linearGradient>
        <path d="M22.5,3.73078325 C23.1346819,5.0212366 23.6346819,7.15456993 24,10.1307832 L0,10.1307832 C0.365492777,7.15423643 0.865492777,5.0209031 1.5,3.73078325 C2.13450722,2.4406634 4.30448302,1.19729428 8.0099274,0.000675890314 C9.08126265,2.2004858 14.9607765,2.200243 15.9870803,0 C19.6943448,1.19673548 21.8653181,2.4403299 22.5,3.73078325 Z" id="path-42"></path>
        <linearGradient x1="50%" y1="0%" x2="50%" y2="100%" id="linearGradient-44">
            <stop stop-color="#F7B186" offset="0%"></stop>
            <stop stop-color="#FFC299" offset="100%"></stop>
        </linearGradient>
        <linearGradient x1="50%" y1="100%" x2="50%" y2="0%" id="linearGradient-45">
            <stop stop-color="#FFC9B3" offset="0%"></stop>
            <stop stop-color="#FFD2C2" offset="100%"></stop>
        </linearGradient>
        <circle id="path-46" cx="15" cy="15" r="15"></circle>
        <filter x="-258.9%" y="-181.6%" width="617.7%" height="463.2%" filterUnits="objectBoundingBox" id="filter-48">
            <feOffset dx="0" dy="7" in="SourceAlpha" result="shadowOffsetOuter1"></feOffset>
            <feGaussianBlur stdDeviation="6" in="shadowOffsetOuter1" result="shadowBlurOuter1"></feGaussianBlur>
            <feColorMatrix values="0 0 0 0 0   0 0 0 0 0   0 0 0 0 0.145098039  0 0 0 0.04 0" type="matrix" in="shadowBlurOuter1" result="shadowMatrixOuter1"></feColorMatrix>
            <feMerge>
                <feMergeNode in="shadowMatrixOuter1"></feMergeNode>
                <feMergeNode in="SourceGraphic"></feMergeNode>
            </feMerge>
        </filter>
        <linearGradient x1="50%" y1="0%" x2="50%" y2="100%" id="linearGradient-49">
            <stop stop-color="#E6864E" offset="0%"></stop>
            <stop stop-color="#EB965E" offset="100%"></stop>
        </linearGradient>
        <path d="M8.7,13.9783802 C8.71185408,14.9117983 9.47852075,15.6189291 11,16.0783802 C9.16666667,17.4117135 7.33333333,18.4783802 5.5,18.4783802 C3.66666667,18.4783802 1.83333333,17.4117135 -1.45519152e-12,16.0783802 C1.51116528,15.6184603 2.2776717,14.9319052 2.29951926,14.0187147 C2.29907182,13.8559177 2.28879313,10.2792218 2.28193963,8.71878741 C0.848732777,6.86111857 1.37520642,4.68319391 1.82437176,4.73750876 C2.37543197,4.80414514 7.14573033,0.277384582 8.06073781,0.0457669268 C8.97574529,-0.185850728 11.3,0.562491237 11.7,2.65 C12.1,4.73750876 12.2671968,9.9992659 10.75,12.1 C10.3182564,12.6977989 9.62808186,12.9301638 8.7,12.8 C8.69916333,13.0912548 8.69916333,13.4840482 8.7,13.9783802 Z" id="path-50"></path>
        <path d="M22.5,3.73078325 C23.1346819,5.0212366 23.6346819,7.15456993 24,10.1307832 L0,10.1307832 C0.365492777,7.15423643 0.865492777,5.0209031 1.5,3.73078325 C2.13450722,2.4406634 4.30448302,1.19729428 8.0099274,0.000675890314 C9.08126265,2.2004858 14.9607765,2.200243 15.9870803,0 C19.6943448,1.19673548 21.8653181,2.4403299 22.5,3.73078325 Z" id="path-52"></path>
        <circle id="path-54" cx="15" cy="15" r="15"></circle>
        <linearGradient x1="50%" y1="0%" x2="50%" y2="100%" id="linearGradient-56">
            <stop stop-color="#1D0024" offset="0%"></stop>
            <stop stop-color="#100014" offset="100%"></stop>
        </linearGradient>
        <linearGradient x1="50%" y1="100%" x2="50%" y2="0%" id="linearGradient-57">
            <stop stop-color="#E6864E" offset="0%"></stop>
            <stop stop-color="#E67240" offset="100%"></stop>
        </linearGradient>
        <circle id="path-58" cx="15" cy="15" r="15"></circle>
        <path d="M19.5,4.8 C19.9888889,5.73333333 20.3555556,7.9 20.6,11.3 L0,11.3 C0.244444444,7.9 0.611111111,5.73333333 1.1,4.8 C1.83333333,3.4 4.9,1.8 10.3,0 C15.7,1.8 18.7666667,3.4 19.5,4.8 Z" id="path-60"></path>
        <path d="M6.01791485,2.47049654 C6.41791485,0.72049654 4.52120529,-0.622411028 2.56791485,0.29946888 C-2.03208515,2.47049654 0.704341901,5.5 2.4043419,5.3 C4.1043419,5.1 5.61791485,4.22049654 6.01791485,2.47049654 Z" id="path-62"></path>
        <circle id="path-64" cx="15" cy="15" r="15"></circle>
        <filter x="-258.9%" y="-181.6%" width="617.7%" height="463.2%" filterUnits="objectBoundingBox" id="filter-66">
            <feOffset dx="0" dy="7" in="SourceAlpha" result="shadowOffsetOuter1"></feOffset>
            <feGaussianBlur stdDeviation="6" in="shadowOffsetOuter1" result="shadowBlurOuter1"></feGaussianBlur>
            <feColorMatrix values="0 0 0 0 0   0 0 0 0 0   0 0 0 0 0.145098039  0 0 0 0.04 0" type="matrix" in="shadowBlurOuter1" result="shadowMatrixOuter1"></feColorMatrix>
            <feMerge>
                <feMergeNode in="shadowMatrixOuter1"></feMergeNode>
                <feMergeNode in="SourceGraphic"></feMergeNode>
            </feMerge>
        </filter>
        <path d="M11,16.0783802 C9.16666667,17.4117135 7.33333333,18.4783802 5.5,18.4783802 C3.66666667,18.4783802 1.83333333,17.4117135 -1.45519152e-12,16.0783802 C1.51116528,15.6184603 2.2776717,14.9319052 2.29951926,14.0187147 C2.29907182,13.8559177 2.29831206,13.6247557 2.29723997,13.1906215 C2.29706975,13.1216925 2.29689165,13.0510699 2.29670568,12.9788484 C2.29369608,11.8148023 2.28879313,10.2792218 2.28193963,8.71878741 C0.848732777,6.86111857 1.37520642,4.68319391 1.82437176,4.73750876 C2.37543197,4.80414514 7.14573033,0.277384582 8.06073781,0.0457669268 C8.97574529,-0.185850728 11.3,0.562491237 11.7,2.65 C12.1,4.73750876 12.2671968,9.9992659 10.75,12.1 C10.3182564,12.6977989 9.6383436,12.9316164 8.71026175,12.8014526 C8.70900674,13.2383349 8.70638373,13.4835274 8.7,13.9783802 C8.71185408,14.9333043 9.47852075,15.6189291 11,16.0783802 Z" id="path-67"></path>
        <path d="M1.9,0.5 L2.4,9.7 L0,9.7 L0.5,0.5 C0.811111111,0.166666667 1.04444444,0 1.2,0 C1.35555556,0 1.58888889,0.166666667 1.9,0.5 Z" id="path-69"></path>
        <path d="M2.01397472,2.36918539 L0.441426702,1.46060209 L0.5,0.5 C0.811111111,0.166666667 1.04444444,0 1.2,0 C1.35555556,0 1.58888889,0.166666667 1.9,0.5 L2.01397472,2.36918539 L2.01397472,2.36918539 Z" id="path-71"></path>
        <circle id="path-73" cx="15" cy="15" r="15"></circle>
        <circle id="path-75" cx="15" cy="15" r="15"></circle>
        <filter x="-258.9%" y="-181.6%" width="617.7%" height="463.2%" filterUnits="objectBoundingBox" id="filter-77">
            <feOffset dx="0" dy="7" in="SourceAlpha" result="shadowOffsetOuter1"></feOffset>
            <feGaussianBlur stdDeviation="6" in="shadowOffsetOuter1" result="shadowBlurOuter1"></feGaussianBlur>
            <feColorMatrix values="0 0 0 0 0   0 0 0 0 0   0 0 0 0 0.145098039  0 0 0 0.04 0" type="matrix" in="shadowBlurOuter1" result="shadowMatrixOuter1"></feColorMatrix>
            <feMerge>
                <feMergeNode in="shadowMatrixOuter1"></feMergeNode>
                <feMergeNode in="SourceGraphic"></feMergeNode>
            </feMerge>
        </filter>
        <path d="M8.7,13.9783802 L8.7,14.021506 C8.71185408,14.9333043 9.47852075,15.6189291 11,16.0783802 C9.16666667,17.4117135 7.33333333,18.4783802 5.5,18.4783802 C3.66666667,18.4783802 1.83333333,17.4117135 -1.45519152e-12,16.0783802 C1.51116528,15.6184603 2.2776717,14.9319052 2.29951926,14.0187147 C2.29907182,13.8559177 2.29831206,13.6247557 2.29723997,13.1906215 C2.29706975,13.1216925 2.29689165,13.0510699 2.29670568,12.9788484 C2.18741903,12.994293 2.19631332,12.98444 2.29664845,12.9566685 C2.29369608,11.8148023 2.28879313,10.2792218 2.28193963,8.71878741 C0.848732777,6.86111857 1.37520642,4.68319391 1.82437176,4.73750876 C2.37543197,4.80414514 7.14573033,0.277384582 8.06073781,0.0457669268 C8.97574529,-0.185850728 11.3,0.562491237 11.7,2.65 C12.1,4.73750876 12.2671968,9.9992659 10.75,12.1 C10.3182564,12.6977989 9.6383436,12.9316164 8.71026175,12.8014526 C8.70900674,13.2383349 8.70638373,13.4835274 8.7,13.9783802 L8.7,13.9783802 Z" id="path-78"></path>
        <path d="M22.5,3.73078325 C23.1346819,5.0212366 23.6346819,7.15456993 24,10.1307832 L0,10.1307832 C0.365492777,7.15423643 0.865492777,5.0209031 1.5,3.73078325 C2.13450722,2.4406634 4.30448302,1.19729428 8.0099274,0.000675890314 C9.08126265,2.2004858 14.9607765,2.200243 15.9870803,0 C19.6943448,1.19673548 21.8653181,2.4403299 22.5,3.73078325 Z" id="path-80"></path>
        <circle id="path-82" cx="15" cy="15" r="15"></circle>
        <filter x="-258.9%" y="-181.6%" width="617.7%" height="463.2%" filterUnits="objectBoundingBox" id="filter-84">
            <feOffset dx="0" dy="7" in="SourceAlpha" result="shadowOffsetOuter1"></feOffset>
            <feGaussianBlur stdDeviation="6" in="shadowOffsetOuter1" result="shadowBlurOuter1"></feGaussianBlur>
            <feColorMatrix values="0 0 0 0 0   0 0 0 0 0   0 0 0 0 0.145098039  0 0 0 0.04 0" type="matrix" in="shadowBlurOuter1" result="shadowMatrixOuter1"></feColorMatrix>
            <feMerge>
                <feMergeNode in="shadowMatrixOuter1"></feMergeNode>
                <feMergeNode in="SourceGraphic"></feMergeNode>
            </feMerge>
        </filter>
        <path d="M8.7,13.9783802 C8.71185408,14.9117983 9.47852075,15.6189291 11,16.0783802 C9.16666667,17.4117135 7.33333333,18.4783802 5.5,18.4783802 C3.66666667,18.4783802 1.83333333,17.4117135 -1.45519152e-12,16.0783802 C1.51116528,15.6184603 2.2776717,14.9319052 2.29951926,14.0187147 C2.29907182,13.8559177 2.28879313,10.2792218 2.28193963,8.71878741 C0.848732777,6.86111857 1.37520642,4.68319391 1.82437176,4.73750876 C2.37543197,4.80414514 7.14573033,0.277384582 8.06073781,0.0457669268 C8.97574529,-0.185850728 11.3,0.562491237 11.7,2.65 C12.1,4.73750876 12.2671968,9.9992659 10.75,12.1 C10.3182564,12.6977989 9.62808186,12.9301638 8.7,12.8 C8.69916333,13.0912548 8.69916333,13.4840482 8.7,13.9783802 Z" id="path-85"></path>
        <path d="M22.5,3.73078325 C23.1346819,5.0212366 23.6346819,7.15456993 24,10.1307832 L0,10.1307832 C0.365492777,7.15423643 0.865492777,5.0209031 1.5,3.73078325 C2.13450722,2.4406634 4.30448302,1.19729428 8.0099274,0.000675890314 C9.08126265,2.2004858 14.9607765,2.200243 15.9870803,0 C19.6943448,1.19673548 21.8653181,2.4403299 22.5,3.73078325 Z" id="path-87"></path>
        <circle id="path-89" cx="15" cy="15" r="15"></circle>
        <rect id="path-91" x="0" y="0" width="215" height="108" rx="10"></rect>
        <filter x="-3.3%" y="-4.6%" width="106.5%" height="113.0%" filterUnits="objectBoundingBox" id="filter-92">
            <feOffset dx="0" dy="2" in="SourceAlpha" result="shadowOffsetOuter1"></feOffset>
            <feGaussianBlur stdDeviation="2" in="shadowOffsetOuter1" result="shadowBlurOuter1"></feGaussianBlur>
            <feColorMatrix values="0 0 0 0 0.188235294   0 0 0 0 0.180392157   0 0 0 0 0.505882353  0 0 0 0.05 0" type="matrix" in="shadowBlurOuter1"></feColorMatrix>
        </filter>
        <linearGradient x1="50%" y1="0%" x2="50%" y2="100%" id="linearGradient-93">
            <stop stop-color="#49B9FF" offset="0%"></stop>
            <stop stop-color="#1C9EF0" offset="100%"></stop>
        </linearGradient>
        <rect id="path-94" x="0" y="0" width="64" height="64" rx="15"></rect>
        <filter x="-43.0%" y="-27.3%" width="185.9%" height="185.9%" filterUnits="objectBoundingBox" id="filter-95">
            <feOffset dx="0" dy="10" in="SourceAlpha" result="shadowOffsetOuter1"></feOffset>
            <feGaussianBlur stdDeviation="7.5" in="shadowOffsetOuter1" result="shadowBlurOuter1"></feGaussianBlur>
            <feColorMatrix values="0 0 0 0 0.188235294   0 0 0 0 0.180392157   0 0 0 0 0.505882353  0 0 0 0.1 0" type="matrix" in="shadowBlurOuter1" result="shadowMatrixOuter1"></feColorMatrix>
            <feOffset dx="0" dy="4" in="SourceAlpha" result="shadowOffsetOuter2"></feOffset>
            <feGaussianBlur stdDeviation="3" in="shadowOffsetOuter2" result="shadowBlurOuter2"></feGaussianBlur>
            <feColorMatrix values="0 0 0 0 0.188235294   0 0 0 0 0.180392157   0 0 0 0 0.505882353  0 0 0 0.1 0" type="matrix" in="shadowBlurOuter2" result="shadowMatrixOuter2"></feColorMatrix>
            <feMerge>
                <feMergeNode in="shadowMatrixOuter1"></feMergeNode>
                <feMergeNode in="shadowMatrixOuter2"></feMergeNode>
            </feMerge>
        </filter>
    </defs>
    <g id="Artboard" stroke="none" stroke-width="1" fill="none" fill-rule="evenodd">
        <g id="People" transform="translate(65.000000, 1.000000)">
            <g id="Rectangle">
                <use fill="black" fill-opacity="1" filter="url(#filter-2)" xlink:href="#path-1"></use>
                <use fill="#FFFFFF" fill-rule="evenodd" xlink:href="#path-1"></use>
            </g>
            <g id="Group" transform="translate(15.000000, 15.000000)">
                <g id="Group-3" transform="translate(55.000000, 115.000000) scale(-1, 1) translate(-55.000000, -115.000000) translate(0.000000, 80.000000)">
                    <g id="User-06a" transform="translate(80.000000, 40.000000)">
                        <mask id="mask-5" fill="white">
                            <use xlink:href="#path-4"></use>
                        </mask>
                        <use id="Mask" fill="url(#linearGradient-3)" fill-rule="nonzero" xlink:href="#path-4"></use>
                        <g id="body" mask="url(#mask-5)">
                            <g transform="translate(4.700000, 19.500000)">
                                <mask id="mask-8" fill="white">
                                    <use xlink:href="#path-7"></use>
                                </mask>
                                <use id="Mask" stroke="none" fill="url(#linearGradient-6)" fill-rule="nonzero" xlink:href="#path-7"></use>
                                <path d="M2.3,5 C2.63137085,5 2.9,4.73137085 2.9,4.4 C2.9,4.06862915 2.63137085,3.8 2.3,3.8 C1.96862915,3.8 1.7,4.06862915 1.7,4.4 C1.7,4.73137085 1.96862915,5 2.3,5 Z M6.3,5 C6.63137085,5 6.9,4.73137085 6.9,4.4 C6.9,4.06862915 6.63137085,3.8 6.3,3.8 C5.96862915,3.8 5.7,4.06862915 5.7,4.4 C5.7,4.73137085 5.96862915,5 6.3,5 Z M10.3,5 C10.6313708,5 10.9,4.73137085 10.9,4.4 C10.9,4.06862915 10.6313708,3.8 10.3,3.8 C9.96862915,3.8 9.7,4.06862915 9.7,4.4 C9.7,4.73137085 9.96862915,5 10.3,5 Z M14.3,5 C14.6313708,5 14.9,4.73137085 14.9,4.4 C14.9,4.06862915 14.6313708,3.8 14.3,3.8 C13.9686292,3.8 13.7,4.06862915 13.7,4.4 C13.7,4.73137085 13.9686292,5 14.3,5 Z M18.3,5 C18.6313708,5 18.9,4.73137085 18.9,4.4 C18.9,4.06862915 18.6313708,3.8 18.3,3.8 C17.9686292,3.8 17.7,4.06862915 17.7,4.4 C17.7,4.73137085 17.9686292,5 18.3,5 Z M0.3,3 C0.63137085,3 0.9,2.73137085 0.9,2.4 C0.9,2.06862915 0.63137085,1.8 0.3,1.8 C-0.0313708499,1.8 -0.3,2.06862915 -0.3,2.4 C-0.3,2.73137085 -0.0313708499,3 0.3,3 Z M4.3,3 C4.63137085,3 4.9,2.73137085 4.9,2.4 C4.9,2.06862915 4.63137085,1.8 4.3,1.8 C3.96862915,1.8 3.7,2.06862915 3.7,2.4 C3.7,2.73137085 3.96862915,3 4.3,3 Z M16.3,3 C16.6313708,3 16.9,2.73137085 16.9,2.4 C16.9,2.06862915 16.6313708,1.8 16.3,1.8 C15.9686292,1.8 15.7,2.06862915 15.7,2.4 C15.7,2.73137085 15.9686292,3 16.3,3 Z M20.3,3 C20.6313708,3 20.9,2.73137085 20.9,2.4 C20.9,2.06862915 20.6313708,1.8 20.3,1.8 C19.9686292,1.8 19.7,2.06862915 19.7,2.4 C19.7,2.73137085 19.9686292,3 20.3,3 Z M2.3,9 C2.63137085,9 2.9,8.73137085 2.9,8.4 C2.9,8.06862915 2.63137085,7.8 2.3,7.8 C1.96862915,7.8 1.7,8.06862915 1.7,8.4 C1.7,8.73137085 1.96862915,9 2.3,9 Z M6.3,9 C6.63137085,9 6.9,8.73137085 6.9,8.4 C6.9,8.06862915 6.63137085,7.8 6.3,7.8 C5.96862915,7.8 5.7,8.06862915 5.7,8.4 C5.7,8.73137085 5.96862915,9 6.3,9 Z M10.3,9 C10.6313708,9 10.9,8.73137085 10.9,8.4 C10.9,8.06862915 10.6313708,7.8 10.3,7.8 C9.96862915,7.8 9.7,8.06862915 9.7,8.4 C9.7,8.73137085 9.96862915,9 10.3,9 Z M14.3,9 C14.6313708,9 14.9,8.73137085 14.9,8.4 C14.9,8.06862915 14.6313708,7.8 14.3,7.8 C13.9686292,7.8 13.7,8.06862915 13.7,8.4 C13.7,8.73137085 13.9686292,9 14.3,9 Z M18.3,9 C18.6313708,9 18.9,8.73137085 18.9,8.4 C18.9,8.06862915 18.6313708,7.8 18.3,7.8 C17.9686292,7.8 17.7,8.06862915 17.7,8.4 C17.7,8.73137085 17.9686292,9 18.3,9 Z M0.3,7 C0.63137085,7 0.9,6.73137085 0.9,6.4 C0.9,6.06862915 0.63137085,5.8 0.3,5.8 C-0.0313708499,5.8 -0.3,6.06862915 -0.3,6.4 C-0.3,6.73137085 -0.0313708499,7 0.3,7 Z M4.3,7 C4.63137085,7 4.9,6.73137085 4.9,6.4 C4.9,6.06862915 4.63137085,5.8 4.3,5.8 C3.96862915,5.8 3.7,6.06862915 3.7,6.4 C3.7,6.73137085 3.96862915,7 4.3,7 Z M8.3,7 C8.63137085,7 8.9,6.73137085 8.9,6.4 C8.9,6.06862915 8.63137085,5.8 8.3,5.8 C7.96862915,5.8 7.7,6.06862915 7.7,6.4 C7.7,6.73137085 7.96862915,7 8.3,7 Z M12.3,7 C12.6313708,7 12.9,6.73137085 12.9,6.4 C12.9,6.06862915 12.6313708,5.8 12.3,5.8 C11.9686292,5.8 11.7,6.06862915 11.7,6.4 C11.7,6.73137085 11.9686292,7 12.3,7 Z M16.3,7 C16.6313708,7 16.9,6.73137085 16.9,6.4 C16.9,6.06862915 16.6313708,5.8 16.3,5.8 C15.9686292,5.8 15.7,6.06862915 15.7,6.4 C15.7,6.73137085 15.9686292,7 16.3,7 Z M20.3,7 C20.6313708,7 20.9,6.73137085 20.9,6.4 C20.9,6.06862915 20.6313708,5.8 20.3,5.8 C19.9686292,5.8 19.7,6.06862915 19.7,6.4 C19.7,6.73137085 19.9686292,7 20.3,7 Z M0.3,11 C0.63137085,11 0.9,10.7313708 0.9,10.4 C0.9,10.0686292 0.63137085,9.8 0.3,9.8 C-0.0313708499,9.8 -0.3,10.0686292 -0.3,10.4 C-0.3,10.7313708 -0.0313708499,11 0.3,11 Z M4.3,11 C4.63137085,11 4.9,10.7313708 4.9,10.4 C4.9,10.0686292 4.63137085,9.8 4.3,9.8 C3.96862915,9.8 3.7,10.0686292 3.7,10.4 C3.7,10.7313708 3.96862915,11 4.3,11 Z M8.3,11 C8.63137085,11 8.9,10.7313708 8.9,10.4 C8.9,10.0686292 8.63137085,9.8 8.3,9.8 C7.96862915,9.8 7.7,10.0686292 7.7,10.4 C7.7,10.7313708 7.96862915,11 8.3,11 Z M12.3,11 C12.6313708,11 12.9,10.7313708 12.9,10.4 C12.9,10.0686292 12.6313708,9.8 12.3,9.8 C11.9686292,9.8 11.7,10.0686292 11.7,10.4 C11.7,10.7313708 11.9686292,11 12.3,11 Z M16.3,11 C16.6313708,11 16.9,10.7313708 16.9,10.4 C16.9,10.0686292 16.6313708,9.8 16.3,9.8 C15.9686292,9.8 15.7,10.0686292 15.7,10.4 C15.7,10.7313708 15.9686292,11 16.3,11 Z M20.3,11 C20.6313708,11 20.9,10.7313708 20.9,10.4 C20.9,10.0686292 20.6313708,9.8 20.3,9.8 C19.9686292,9.8 19.7,10.0686292 19.7,10.4 C19.7,10.7313708 19.9686292,11 20.3,11 Z" id="Combined-Shape" stroke="none" fill="#13001E" fill-rule="nonzero" opacity="0.400000006" mask="url(#mask-8)"></path>
                            </g>
                        </g>
                        <g id="bun" mask="url(#mask-5)">
                            <g transform="translate(16.000000, 2.800000)">
                                <mask id="mask-11" fill="white">
                                    <use xlink:href="#path-10" transform="translate(3.052171, 2.654707) scale(-1, 1) translate(-3.052171, -2.654707) "></use>
                                </mask>
                                <use id="Mask" stroke="none" fill="url(#linearGradient-9)" fill-rule="evenodd" transform="translate(3.052171, 2.654707) scale(-1, 1) translate(-3.052171, -2.654707) " xlink:href="#path-10"></use>
                                <path d="M1.75,2.75 C4.01666667,4.21666667 5.43333333,4.55 6,3.75 C6.08768875,4.25107856 5.68438308,5.66650933 5.05,5.65 C3.78487516,5.6170761 2.68487516,4.65040943 1.75,2.75 Z" id="Path-3" stroke="none" fill="#E0713F" fill-rule="evenodd" opacity="0.600000024" style="mix-blend-mode: multiply;" mask="url(#mask-11)"></path>
                            </g>
                        </g>
                        <path d="M17.2,16.3 C15.0516501,17.3320504 14.7382731,17.2767689 10,13.4 C2.85,7.55 9.6,2.2 16.85,5.05 C24.7,8.5 22.070033,13.9604744 17.2,16.3 Z" id="hair" fill="url(#linearGradient-12)" mask="url(#mask-5)"></path>
                        <path d="M17.4,20.4 C16.6666667,21.6 13.3333333,21.6 12.6,20.4 L12.6,18.4 C12.3824928,18.4063929 12.1991595,18.4063929 12.05,18.4 C9.71106912,18.2997553 8.92945872,14.5373232 9.29651489,10.7737744 C9.56532134,8.01761269 11.9,11.8 15.7,9.15 C15.55,12.05 16.8,11.75 17.35,11.4 C19.85,10.25 19.8708914,14.9642157 17.4,14.6 L17.4,20.4 Z" id="face" fill="url(#linearGradient-13)" mask="url(#mask-5)"></path>
                        <path d="M12.5903791,18.3411241 C13.4921575,18.3059076 14.6301663,17.8419883 16.0044055,16.9493663 C15.3146167,18.2994873 14.1661381,19.0632239 12.5589695,19.2405759 L12.5903791,18.3411241 Z" id="shade" fill="#FFBB94" fill-rule="nonzero" mask="url(#mask-5)" transform="translate(14.281688, 18.094971) rotate(-2.000000) translate(-14.281688, -18.094971) "></path>
                        <path d="M17.4,20.1460304 L17.4,19.5 C17.5834036,19.5 18.1085402,19.9332355 18.3785918,20.3 C19.4462379,21.75 18.2619954,23.05 17.2962379,23.05 C16.0775724,23.05 15.2701869,22.0318477 15,21.5419699 C14.7298131,22.0318477 13.9224276,23.05 12.7037621,23.05 C11.7380046,23.05 10.5537621,21.75 11.6214082,20.3 C11.8914598,19.9332355 12.4165964,19.5 12.6,19.5 L12.6,20.1460304 C12.6,20.9107908 14.2739528,21.2647816 14.9966907,21.2974905 C15.6808057,21.2647815 17.4,20.9107906 17.4,20.1460304 Z" id="collar" fill="#FFF9F5" fill-rule="nonzero" mask="url(#mask-5)"></path>
                        <path d="M17.7394236,7.14278153 C19.3394236,11.1427815 18.4394236,13.0927815 17.1894236,15.4427815 C16.3560903,17.0094482 16.4560903,18.5261149 17.4894236,19.9927815 C16.2894236,19.2261149 15.6894236,17.9927815 15.6894236,16.2927815 C15.6894236,13.7427815 17.4894236,12.1427815 15.9894236,10.0427815 C14.4894236,7.94278153 16.1394236,3.14278153 17.7394236,7.14278153 Z" id="hair" fill="url(#linearGradient-14)" mask="url(#mask-5)" transform="translate(16.999224, 12.796391) scale(-1, 1) translate(-16.999224, -12.796391) "></path>
                    </g>
                    <g id="User-07b" transform="translate(40.000000, 40.000000)">
                        <mask id="mask-17" fill="white">
                            <use xlink:href="#path-16"></use>
                        </mask>
                        <use id="Mask" fill="url(#linearGradient-15)" fill-rule="nonzero" xlink:href="#path-16"></use>
                        <g id="Group-10" mask="url(#mask-17)">
                            <g transform="translate(6.900000, 3.300000)" id="Group-11">
                                <g transform="translate(7.050000, 10.050000) scale(-1, 1) translate(-7.050000, -10.050000) " id="Group-14" filter="url(#filter-18)">
                                    <g id="Path-48" transform="translate(0.500000, 1.600000)">
                                        <mask id="mask-21" fill="white">
                                            <use xlink:href="#path-20"></use>
                                        </mask>
                                        <use id="Combined-Shape" fill="url(#linearGradient-19)" xlink:href="#path-20"></use>
                                        <path d="M8.7,12.8 C7.23333333,12.6333333 6.03333333,12.2333333 5.1,11.6 C6.16666667,12.9333333 7.36666667,13.7333333 8.7,14 L8.7,12.8 Z" fill="#FC9F6A" fill-rule="nonzero" mask="url(#mask-21)"></path>
                                    </g>
                                    <path d="M2.05,10.35 C1.36101791,8.69295037 -1.4,5.31834496 0.979877974,3.21834496 C1.77987797,-0.681655038 6.2,-0.25 9.15,0.65 C11.1326967,1.25489053 12.629878,2.45 12.95,1.55 C14.95,3.21834496 13.948436,4.85 12.629878,5.31834496 C11.4332466,5.74338221 9.40969384,6.16834496 5.96932559,5.76834496 C5.35473737,5.69688886 5.48344489,7.57914411 5.155003,7.78267025 C4.66234016,8.08795946 4.27987797,6.16834496 2.92911567,6.74472194 C1.57835336,7.32109892 2.37987797,9.99369122 3.82987797,9.99369122 C4.32987797,9.99369122 4.57987797,11.368345 3.22987797,12.018345 C2.25,12.5 2.49767732,11.4266949 2.05,10.35 Z" id="Path-22" fill="url(#linearGradient-22)" fill-rule="nonzero"></path>
                                </g>
                            </g>
                        </g>
                        <g id="Group-23" mask="url(#mask-17)">
                            <g transform="translate(3.000000, 19.100000)">
                                <path d="M22.5,4.93078325 C23.1346819,6.2212366 23.6346819,8.35456993 24,11.3307832 L0,11.3307832 C0.365492777,8.35423643 0.865492777,6.2209031 1.5,4.93078325 C2.13450722,3.6406634 4.30448302,2.39729428 8.0099274,1.20067589 C11.0812626,2.4004858 12.9607765,2.400243 15.9870803,1.2 C19.6943448,2.39673548 21.8653181,3.6403299 22.5,4.93078325 Z" id="Combined-Shape" fill="url(#linearGradient-23)" fill-rule="nonzero"></path>
                                <g id="Group-22" stroke-width="1" fill="none" fill-rule="evenodd" transform="translate(10.800000, 1.400000)">
                                    <mask id="mask-26" fill="white">
                                        <use xlink:href="#path-25"></use>
                                    </mask>
                                    <use id="Mask" fill="url(#linearGradient-24)" fill-rule="nonzero" xlink:href="#path-25"></use>
                                    <mask id="mask-28" fill="white">
                                        <use xlink:href="#path-27"></use>
                                    </mask>
                                    <use id="Combined-Shape" fill="#645050" fill-rule="nonzero" xlink:href="#path-27"></use>
                                </g>
                                <path d="M15.2,0 L16.1,1.3 L13,3.2 L12,1.399 L11,3.2 L7.9,1.3 L8.8,0 L12,1.182 L15.2,0 Z" id="Combined-Shape" fill="#FFFFFF" fill-rule="evenodd"></path>
                            </g>
                        </g>
                    </g>
                    <g id="User-05a" transform="translate(0.000000, 40.000000)">
                        <mask id="mask-30" fill="white">
                            <use xlink:href="#path-29" transform="translate(15.000000, 15.000000) scale(-1, 1) translate(-15.000000, -15.000000) "></use>
                        </mask>
                        <use id="Mask" fill="url(#linearGradient-3)" fill-rule="nonzero" transform="translate(15.000000, 15.000000) scale(-1, 1) translate(-15.000000, -15.000000) " xlink:href="#path-29"></use>
                        <path d="M18.1,17.4 C18.1,17.4 18.1,17.8 18.1,18.6 C18.1,19.6666667 18.8666667,20.4333333 20.4,20.9 C18.6333333,22.2333333 16.8333333,22.9 15,22.9 C13.1666667,22.9 11.3666667,22.2333333 9.6,20.9 C11.1453736,20.4333333 11.9120402,19.6666667 11.9,18.6 C11.8819396,17 11.8939799,16.060161 11.8819396,13.3187874 C10.4487328,11.4611186 10.5406715,10.2142995 11.3243718,9.33750876 C13.0747906,7.37916959 16.3333333,6.73333333 21.1,7.4 C21.5447979,12.1995106 21.2614646,15.2995106 20.25,16.7 C19.8166667,17.3 19.1,17.5333333 18.1,17.4 Z" id="face" fill="url(#linearGradient-31)" mask="url(#mask-30)"></path>
                        <path d="M18.1,17.4 C16.6333333,17.2333333 15.4666667,16.8333333 14.6,16.2 C15.3333333,17.4333333 16.5,18.2333333 18.1,18.6 L18.1,17.4 Z" id="shade" fill="#FFDBC9" style="mix-blend-mode: multiply;" mask="url(#mask-30)"></path>
                        <path d="M25.5,23.9307832 C26.1346819,25.2212366 26.6346819,27.3545699 27,30.3307832 L3,30.3307832 C3.36549278,27.3542364 3.86549278,25.2209031 4.5,23.9307832 C5.13450722,22.6406634 7.30448302,21.3972943 11.0099274,20.2006759 C12.0812626,22.4004858 17.9607765,22.400243 18.9870803,20.2 C22.6943448,21.3967355 24.8653181,22.6403299 25.5,23.9307832 Z" id="body" fill="url(#linearGradient-32)" fill-rule="nonzero" mask="url(#mask-30)"></path>
                        <path d="M15.1,24.2 C15.3761424,24.2 15.6,24.0209139 15.6,23.8 C15.6,23.5790861 15.3761424,23.4 15.1,23.4 C14.8238576,23.4 14.6,23.5790861 14.6,23.8 C14.6,24.0209139 14.8238576,24.2 15.1,24.2 Z M15.1,26.2 C15.3761424,26.2 15.6,26.0209139 15.6,25.8 C15.6,25.5790861 15.3761424,25.4 15.1,25.4 C14.8238576,25.4 14.6,25.5790861 14.6,25.8 C14.6,26.0209139 14.8238576,26.2 15.1,26.2 Z M15.1,28.2 C15.3761424,28.2 15.6,28.0209139 15.6,27.8 C15.6,27.5790861 15.3761424,27.4 15.1,27.4 C14.8238576,27.4 14.6,27.5790861 14.6,27.8 C14.6,28.0209139 14.8238576,28.2 15.1,28.2 Z" id="buttons" fill="#FFFFFF" fill-rule="nonzero" mask="url(#mask-30)"></path>
                        <path d="M13.1154922,10.3208791 C12.7974537,10.0477496 12.4110792,9.86389136 11.864889,10.1476763 C10.5699543,10.8204876 11.55,13.4 12.7,13.4 C13.0000864,13.4 13.1492423,14.3422491 11.8134562,15.000341 C11.8134562,13.950341 10.2134562,11.350341 10.0739169,8.98309392 C8.46345625,8.38361652 8.86345625,5.98492144 9.96921841,5.98492144 C9.79236134,3.78576818 13.3134562,2.65034099 14.6768595,3.91193793 C16.0634562,2.25034099 19.5634562,3.10034099 19.7748286,4.54183149 C22.1814567,3.25705873 23.7634562,6.95034099 21.509962,8.38361652 C20.5827015,8.97337609 18.4134562,9.19811964 15.2822065,9.19811964 C14.809555,9.19811964 14.5447556,9.31549942 14.6768595,9.9 C14.9328312,11.0325607 14.3386893,11.7460198 13.1154922,10.3208791 Z" id="hair" fill="url(#linearGradient-33)" mask="url(#mask-30)"></path>
                    </g>
                    <g id="User-07a" transform="translate(80.000000, 0.000000)">
                        <mask id="mask-35" fill="white">
                            <use xlink:href="#path-34"></use>
                        </mask>
                        <use id="Mask" fill="url(#linearGradient-3)" fill-rule="nonzero" xlink:href="#path-34"></use>
                        <g id="Group-10" mask="url(#mask-35)">
                            <g transform="translate(6.900000, 3.300000)" id="Group-11">
                                <g transform="translate(7.050000, 10.050000) scale(-1, 1) translate(-7.050000, -10.050000) " id="Group-14" filter="url(#filter-36)">
                                    <g id="Path-48" transform="translate(0.500000, 1.600000)">
                                        <mask id="mask-39" fill="white">
                                            <use xlink:href="#path-38"></use>
                                        </mask>
                                        <use id="Combined-Shape" fill="url(#linearGradient-37)" xlink:href="#path-38"></use>
                                        <path d="M8.7,12.8 C7.23333333,12.6333333 6.03333333,12.2333333 5.1,11.6 C6.10931728,12.9411039 7.30931728,13.7411039 8.7,14 L8.7,12.8 Z" fill="#FFBE94" fill-rule="nonzero" mask="url(#mask-39)"></path>
                                    </g>
                                    <path d="M2.05,10.35 C1.36101791,8.69295037 -1.4,5.31834496 0.979877974,3.21834496 C1.77987797,-0.681655038 6.2,-0.25 9.15,0.65 C11.1326967,1.25489053 12.629878,2.45 12.95,1.55 C14.95,3.21834496 13.948436,4.85 12.629878,5.31834496 C11.4332466,5.74338221 9.40969384,6.16834496 5.96932559,5.76834496 C5.35473737,5.69688886 5.48344489,7.57914411 5.155003,7.78267025 C4.66234016,8.08795946 4.27987797,6.16834496 2.92911567,6.74472194 C1.57835336,7.32109892 2.37987797,9.99369122 3.82987797,9.99369122 C4.32987797,9.99369122 4.57987797,11.368345 3.22987797,12.018345 C2.25,12.5 2.49767732,11.4266949 2.05,10.35 Z" id="Path-22" fill="url(#linearGradient-40)"></path>
                                </g>
                            </g>
                        </g>
                        <g id="Group-21" mask="url(#mask-35)">
                            <g transform="translate(3.000000, 20.300000)">
                                <mask id="mask-43" fill="white">
                                    <use xlink:href="#path-42"></use>
                                </mask>
                                <use id="Combined-Shape" stroke="none" fill="url(#linearGradient-41)" fill-rule="evenodd" xlink:href="#path-42"></use>
                                <path d="M-1,3.3 L25,3.3 L25,4.1 L-1,4.1 L-1,3.3 Z M-1,5.3 L25,5.3 L25,6.1 L-1,6.1 L-1,5.3 Z M-1,7.3 L25,7.3 L25,8.1 L-1,8.1 L-1,7.3 Z" id="Combined-Shape" stroke="none" fill="url(#linearGradient-44)" fill-rule="evenodd" mask="url(#mask-43)"></path>
                            </g>
                        </g>
                    </g>
                    <g id="User-07c" transform="translate(40.000000, 0.000000)">
                        <mask id="mask-47" fill="white">
                            <use xlink:href="#path-46"></use>
                        </mask>
                        <use id="Mask" fill="url(#linearGradient-45)" xlink:href="#path-46"></use>
                        <g id="Group-10" mask="url(#mask-47)">
                            <g transform="translate(6.900000, 3.300000)" id="Group-11">
                                <g transform="translate(7.050000, 10.050000) scale(-1, 1) translate(-7.050000, -10.050000) " id="Group-14" filter="url(#filter-48)">
                                    <g id="Path-48" transform="translate(0.500000, 1.600000)">
                                        <mask id="mask-51" fill="white">
                                            <use xlink:href="#path-50"></use>
                                        </mask>
                                        <use id="Combined-Shape" fill="url(#linearGradient-49)" xlink:href="#path-50"></use>
                                        <path d="M8.7,12.8 C7.23333333,12.6333333 6.03333333,12.2333333 5.1,11.6 C5.9,12.9333333 7.1,13.7333333 8.7,14 L8.7,12.8 Z" fill="#DB6F3D" fill-rule="nonzero" mask="url(#mask-51)"></path>
                                    </g>
                                    <path d="M2.05,10.35 C1.36101791,8.69295037 -1.4,5.31834496 0.979877974,3.21834496 C1.77987797,-0.681655038 6.2,-0.25 9.15,0.65 C11.1326967,1.25489053 12.629878,2.45 12.95,1.55 C14.95,3.21834496 13.948436,4.85 12.629878,5.31834496 C11.4332466,5.74338221 9.40969384,6.16834496 5.96932559,5.76834496 C5.35473737,5.69688886 5.48344489,7.57914411 5.155003,7.78267025 C4.66234016,8.08795946 4.27987797,6.16834496 2.92911567,6.74472194 C1.57835336,7.32109892 2.37987797,9.99369122 3.82987797,9.99369122 C4.32987797,9.99369122 4.57987797,11.368345 3.22987797,12.018345 C2.25,12.5 2.49767732,11.4266949 2.05,10.35 Z" id="Path-22" fill="#FFFFFF"></path>
                                </g>
                            </g>
                        </g>
                        <g id="Group-21" mask="url(#mask-47)">
                            <g transform="translate(3.000000, 20.300000)">
                                <mask id="mask-53" fill="white">
                                    <use xlink:href="#path-52"></use>
                                </mask>
                                <use id="Combined-Shape" stroke="none" fill="url(#linearGradient-23)" fill-rule="nonzero" xlink:href="#path-52"></use>
                                <path d="M-1,3.3 L25,3.3 L25,4.1 L-1,4.1 L-1,3.3 Z M-1,5.3 L25,5.3 L25,6.1 L-1,6.1 L-1,5.3 Z M-1,7.3 L25,7.3 L25,8.1 L-1,8.1 L-1,7.3 Z" id="Combined-Shape" stroke="none" fill="#6E5C5A" fill-rule="nonzero" mask="url(#mask-53)"></path>
                            </g>
                        </g>
                    </g>
                    <g id="User-04c" transform="translate(15.000000, 15.000000) scale(-1, 1) translate(-15.000000, -15.000000) ">
                        <mask id="mask-55" fill="white">
                            <use xlink:href="#path-54" transform="translate(15.000000, 15.000000) scale(-1, 1) translate(-15.000000, -15.000000) "></use>
                        </mask>
                        <use id="Mask" fill="url(#linearGradient-45)" transform="translate(15.000000, 15.000000) scale(-1, 1) translate(-15.000000, -15.000000) " xlink:href="#path-54"></use>
                        <path d="M24.2,23.5 C24.6888889,24.4333333 25.0555556,26.6 25.3,30 L4.7,30 C4.94444444,26.6 5.31111111,24.4333333 5.8,23.5 C6.53333333,22.1 9.6,20.5 15,18.7 C20.4,20.5 23.4666667,22.1 24.2,23.5 Z" id="Rectangle" fill="url(#linearGradient-56)" fill-rule="nonzero" mask="url(#mask-55)" transform="translate(15.000000, 24.350000) scale(-1, 1) translate(-15.000000, -24.350000) "></path>
                        <path d="M15.35,24 C15.7642136,24 16.1,23.8209139 16.1,23.6 C16.1,23.3790861 15.7642136,23.2 15.35,23.2 C14.9357864,23.2 14.6,23.3790861 14.6,23.6 C14.6,23.8209139 14.9357864,24 15.35,24 Z M15.35,26 C15.7642136,26 16.1,25.8209139 16.1,25.6 C16.1,25.3790861 15.7642136,25.2 15.35,25.2 C14.9357864,25.2 14.6,25.3790861 14.6,25.6 C14.6,25.8209139 14.9357864,26 15.35,26 Z M15.35,28 C15.7642136,28 16.1,27.8209139 16.1,27.6 C16.1,27.3790861 15.7642136,27.2 15.35,27.2 C14.9357864,27.2 14.6,27.3790861 14.6,27.6 C14.6,27.8209139 14.9357864,28 15.35,28 Z" id="Combined-Shape" fill="#FFFFFF" fill-rule="nonzero" mask="url(#mask-55)" transform="translate(15.350000, 25.600000) scale(-1, 1) translate(-15.350000, -25.600000) "></path>
                        <path d="M22.8191296,17.5411059 L6.57337407,15.5777926 C5.7724351,11.3259309 6.7224351,8.64703532 9.42337407,7.54110595 C10.6719656,3.45 15.5317334,3.7827648 16.9091549,4.1162898 C21.596732,5.25132662 23.5667235,9.72626534 22.8191296,17.5411059 Z" id="Combined-Shape" fill="url(#linearGradient-57)" mask="url(#mask-55)" transform="translate(14.635983, 10.737198) scale(-1, 1) translate(-14.635983, -10.737198) "></path>
                        <path d="M10.5303132,19.9 L10.5303132,13.9 C8.02823789,13.8625811 8.51622467,9.52679553 11.0303132,10.85 C11.4803132,11.05 12.6303132,10.5 12.2303132,9.15 C14.9303132,11.15 18.6927545,7.63990992 18.9303132,9.8 C19.397832,14.0510878 18.4932594,17.5451576 16.0945337,17.5454083 C15.8590134,17.545433 15.6295496,17.553394 15.3303132,17.5 L15.3303132,19.9 C14.5473257,20.3666667 13.7643382,20.6 12.9813508,20.6 C12.1983633,20.6 11.3813508,20.3666667 10.5303132,19.9 Z" id="Mask" fill="#FFDBC9" mask="url(#mask-55)" transform="translate(13.965157, 14.834126) scale(-1, 1) translate(-13.965157, -14.834126) "></path>
                        <path d="M16.1,17.5 L16.1,18.3 C14.6,18.3 13.4333333,17.5833333 12.6,16.15 C13.6,16.8166667 14.7666667,17.2666667 16.1,17.5 Z" id="Path-2" fill="#FFBC9E" mask="url(#mask-55)" transform="translate(14.350000, 17.225000) scale(-1, 1) translate(-14.350000, -17.225000) "></path>
                        <path d="M14.9966903,20.4974905 C15.6808057,20.4647815 17.4,20.1107906 17.4,19.3460304 L17.4,18.7 C17.5834036,18.7 18.1085402,19.1332355 18.3785918,19.5 C19.4462379,20.95 18.2619954,22.25 17.2962379,22.25 C16.0775724,22.25 15.2701869,21.2318477 15,20.7419699 C14.7298131,21.2318477 13.9224276,22.25 12.7037621,22.25 C11.7380046,22.25 10.5537621,20.95 11.6214082,19.5 C11.8914598,19.1332355 12.4165964,18.7 12.6,18.7 L12.6,19.3460304 C12.6,20.1107908 14.2739528,20.4647816 14.9966907,20.4974905 L14.9966903,20.4974905 Z" id="Combined-Shape" fill="#FFFFFF" fill-rule="nonzero" mask="url(#mask-55)" transform="translate(15.000000, 20.475000) scale(-1, 1) translate(-15.000000, -20.475000) "></path>
                    </g>
                </g>
                <g id="Group-3">
                    <g id="User-06a" transform="translate(80.000000, 40.000000)">
                        <mask id="mask-59" fill="white">
                            <use xlink:href="#path-58"></use>
                        </mask>
                        <use id="Mask" fill="url(#linearGradient-3)" fill-rule="nonzero" xlink:href="#path-58"></use>
                        <g id="body" mask="url(#mask-59)">
                            <g transform="translate(4.700000, 19.500000)">
                                <mask id="mask-61" fill="white">
                                    <use xlink:href="#path-60"></use>
                                </mask>
                                <use id="Mask" stroke="none" fill="url(#linearGradient-6)" fill-rule="nonzero" xlink:href="#path-60"></use>
                                <path d="M2.3,5 C2.63137085,5 2.9,4.73137085 2.9,4.4 C2.9,4.06862915 2.63137085,3.8 2.3,3.8 C1.96862915,3.8 1.7,4.06862915 1.7,4.4 C1.7,4.73137085 1.96862915,5 2.3,5 Z M6.3,5 C6.63137085,5 6.9,4.73137085 6.9,4.4 C6.9,4.06862915 6.63137085,3.8 6.3,3.8 C5.96862915,3.8 5.7,4.06862915 5.7,4.4 C5.7,4.73137085 5.96862915,5 6.3,5 Z M10.3,5 C10.6313708,5 10.9,4.73137085 10.9,4.4 C10.9,4.06862915 10.6313708,3.8 10.3,3.8 C9.96862915,3.8 9.7,4.06862915 9.7,4.4 C9.7,4.73137085 9.96862915,5 10.3,5 Z M14.3,5 C14.6313708,5 14.9,4.73137085 14.9,4.4 C14.9,4.06862915 14.6313708,3.8 14.3,3.8 C13.9686292,3.8 13.7,4.06862915 13.7,4.4 C13.7,4.73137085 13.9686292,5 14.3,5 Z M18.3,5 C18.6313708,5 18.9,4.73137085 18.9,4.4 C18.9,4.06862915 18.6313708,3.8 18.3,3.8 C17.9686292,3.8 17.7,4.06862915 17.7,4.4 C17.7,4.73137085 17.9686292,5 18.3,5 Z M0.3,3 C0.63137085,3 0.9,2.73137085 0.9,2.4 C0.9,2.06862915 0.63137085,1.8 0.3,1.8 C-0.0313708499,1.8 -0.3,2.06862915 -0.3,2.4 C-0.3,2.73137085 -0.0313708499,3 0.3,3 Z M4.3,3 C4.63137085,3 4.9,2.73137085 4.9,2.4 C4.9,2.06862915 4.63137085,1.8 4.3,1.8 C3.96862915,1.8 3.7,2.06862915 3.7,2.4 C3.7,2.73137085 3.96862915,3 4.3,3 Z M16.3,3 C16.6313708,3 16.9,2.73137085 16.9,2.4 C16.9,2.06862915 16.6313708,1.8 16.3,1.8 C15.9686292,1.8 15.7,2.06862915 15.7,2.4 C15.7,2.73137085 15.9686292,3 16.3,3 Z M20.3,3 C20.6313708,3 20.9,2.73137085 20.9,2.4 C20.9,2.06862915 20.6313708,1.8 20.3,1.8 C19.9686292,1.8 19.7,2.06862915 19.7,2.4 C19.7,2.73137085 19.9686292,3 20.3,3 Z M2.3,9 C2.63137085,9 2.9,8.73137085 2.9,8.4 C2.9,8.06862915 2.63137085,7.8 2.3,7.8 C1.96862915,7.8 1.7,8.06862915 1.7,8.4 C1.7,8.73137085 1.96862915,9 2.3,9 Z M6.3,9 C6.63137085,9 6.9,8.73137085 6.9,8.4 C6.9,8.06862915 6.63137085,7.8 6.3,7.8 C5.96862915,7.8 5.7,8.06862915 5.7,8.4 C5.7,8.73137085 5.96862915,9 6.3,9 Z M10.3,9 C10.6313708,9 10.9,8.73137085 10.9,8.4 C10.9,8.06862915 10.6313708,7.8 10.3,7.8 C9.96862915,7.8 9.7,8.06862915 9.7,8.4 C9.7,8.73137085 9.96862915,9 10.3,9 Z M14.3,9 C14.6313708,9 14.9,8.73137085 14.9,8.4 C14.9,8.06862915 14.6313708,7.8 14.3,7.8 C13.9686292,7.8 13.7,8.06862915 13.7,8.4 C13.7,8.73137085 13.9686292,9 14.3,9 Z M18.3,9 C18.6313708,9 18.9,8.73137085 18.9,8.4 C18.9,8.06862915 18.6313708,7.8 18.3,7.8 C17.9686292,7.8 17.7,8.06862915 17.7,8.4 C17.7,8.73137085 17.9686292,9 18.3,9 Z M0.3,7 C0.63137085,7 0.9,6.73137085 0.9,6.4 C0.9,6.06862915 0.63137085,5.8 0.3,5.8 C-0.0313708499,5.8 -0.3,6.06862915 -0.3,6.4 C-0.3,6.73137085 -0.0313708499,7 0.3,7 Z M4.3,7 C4.63137085,7 4.9,6.73137085 4.9,6.4 C4.9,6.06862915 4.63137085,5.8 4.3,5.8 C3.96862915,5.8 3.7,6.06862915 3.7,6.4 C3.7,6.73137085 3.96862915,7 4.3,7 Z M8.3,7 C8.63137085,7 8.9,6.73137085 8.9,6.4 C8.9,6.06862915 8.63137085,5.8 8.3,5.8 C7.96862915,5.8 7.7,6.06862915 7.7,6.4 C7.7,6.73137085 7.96862915,7 8.3,7 Z M12.3,7 C12.6313708,7 12.9,6.73137085 12.9,6.4 C12.9,6.06862915 12.6313708,5.8 12.3,5.8 C11.9686292,5.8 11.7,6.06862915 11.7,6.4 C11.7,6.73137085 11.9686292,7 12.3,7 Z M16.3,7 C16.6313708,7 16.9,6.73137085 16.9,6.4 C16.9,6.06862915 16.6313708,5.8 16.3,5.8 C15.9686292,5.8 15.7,6.06862915 15.7,6.4 C15.7,6.73137085 15.9686292,7 16.3,7 Z M20.3,7 C20.6313708,7 20.9,6.73137085 20.9,6.4 C20.9,6.06862915 20.6313708,5.8 20.3,5.8 C19.9686292,5.8 19.7,6.06862915 19.7,6.4 C19.7,6.73137085 19.9686292,7 20.3,7 Z M0.3,11 C0.63137085,11 0.9,10.7313708 0.9,10.4 C0.9,10.0686292 0.63137085,9.8 0.3,9.8 C-0.0313708499,9.8 -0.3,10.0686292 -0.3,10.4 C-0.3,10.7313708 -0.0313708499,11 0.3,11 Z M4.3,11 C4.63137085,11 4.9,10.7313708 4.9,10.4 C4.9,10.0686292 4.63137085,9.8 4.3,9.8 C3.96862915,9.8 3.7,10.0686292 3.7,10.4 C3.7,10.7313708 3.96862915,11 4.3,11 Z M8.3,11 C8.63137085,11 8.9,10.7313708 8.9,10.4 C8.9,10.0686292 8.63137085,9.8 8.3,9.8 C7.96862915,9.8 7.7,10.0686292 7.7,10.4 C7.7,10.7313708 7.96862915,11 8.3,11 Z M12.3,11 C12.6313708,11 12.9,10.7313708 12.9,10.4 C12.9,10.0686292 12.6313708,9.8 12.3,9.8 C11.9686292,9.8 11.7,10.0686292 11.7,10.4 C11.7,10.7313708 11.9686292,11 12.3,11 Z M16.3,11 C16.6313708,11 16.9,10.7313708 16.9,10.4 C16.9,10.0686292 16.6313708,9.8 16.3,9.8 C15.9686292,9.8 15.7,10.0686292 15.7,10.4 C15.7,10.7313708 15.9686292,11 16.3,11 Z M20.3,11 C20.6313708,11 20.9,10.7313708 20.9,10.4 C20.9,10.0686292 20.6313708,9.8 20.3,9.8 C19.9686292,9.8 19.7,10.0686292 19.7,10.4 C19.7,10.7313708 19.9686292,11 20.3,11 Z" id="Combined-Shape" stroke="none" fill="#13001E" fill-rule="nonzero" opacity="0.400000006" mask="url(#mask-61)"></path>
                            </g>
                        </g>
                        <g id="bun" mask="url(#mask-59)">
                            <g transform="translate(16.000000, 2.800000)">
                                <mask id="mask-63" fill="white">
                                    <use xlink:href="#path-62" transform="translate(3.052171, 2.654707) scale(-1, 1) translate(-3.052171, -2.654707) "></use>
                                </mask>
                                <use id="Mask" stroke="none" fill="url(#linearGradient-9)" fill-rule="evenodd" transform="translate(3.052171, 2.654707) scale(-1, 1) translate(-3.052171, -2.654707) " xlink:href="#path-62"></use>
                                <path d="M1.75,2.75 C4.01666667,4.21666667 5.43333333,4.55 6,3.75 C6.08768875,4.25107856 5.68438308,5.66650933 5.05,5.65 C3.78487516,5.6170761 2.68487516,4.65040943 1.75,2.75 Z" id="Path-3" stroke="none" fill="#E0713F" fill-rule="evenodd" opacity="0.600000024" style="mix-blend-mode: multiply;" mask="url(#mask-63)"></path>
                            </g>
                        </g>
                        <path d="M17.2,16.3 C15.0516501,17.3320504 14.7382731,17.2767689 10,13.4 C2.85,7.55 9.6,2.2 16.85,5.05 C24.7,8.5 22.070033,13.9604744 17.2,16.3 Z" id="hair" fill="url(#linearGradient-12)" mask="url(#mask-59)"></path>
                        <path d="M17.4,20.4 C16.6666667,21.6 13.3333333,21.6 12.6,20.4 L12.6,18.4 C12.3824928,18.4063929 12.1991595,18.4063929 12.05,18.4 C9.71106912,18.2997553 8.92945872,14.5373232 9.29651489,10.7737744 C9.56532134,8.01761269 11.9,11.8 15.7,9.15 C15.55,12.05 16.8,11.75 17.35,11.4 C19.85,10.25 19.8708914,14.9642157 17.4,14.6 L17.4,20.4 Z" id="face" fill="url(#linearGradient-13)" mask="url(#mask-59)"></path>
                        <path d="M12.5903791,18.3411241 C13.4921575,18.3059076 14.6301663,17.8419883 16.0044055,16.9493663 C15.3146167,18.2994873 14.1661381,19.0632239 12.5589695,19.2405759 L12.5903791,18.3411241 Z" id="shade" fill="#FFBB94" fill-rule="nonzero" mask="url(#mask-59)" transform="translate(14.281688, 18.094971) rotate(-2.000000) translate(-14.281688, -18.094971) "></path>
                        <path d="M17.4,20.1460304 L17.4,19.5 C17.5834036,19.5 18.1085402,19.9332355 18.3785918,20.3 C19.4462379,21.75 18.2619954,23.05 17.2962379,23.05 C16.0775724,23.05 15.2701869,22.0318477 15,21.5419699 C14.7298131,22.0318477 13.9224276,23.05 12.7037621,23.05 C11.7380046,23.05 10.5537621,21.75 11.6214082,20.3 C11.8914598,19.9332355 12.4165964,19.5 12.6,19.5 L12.6,20.1460304 C12.6,20.9107908 14.2739528,21.2647816 14.9966907,21.2974905 C15.6808057,21.2647815 17.4,20.9107906 17.4,20.1460304 Z" id="collar" fill="#FFF9F5" fill-rule="nonzero" mask="url(#mask-59)"></path>
                        <path d="M17.7394236,7.14278153 C19.3394236,11.1427815 18.4394236,13.0927815 17.1894236,15.4427815 C16.3560903,17.0094482 16.4560903,18.5261149 17.4894236,19.9927815 C16.2894236,19.2261149 15.6894236,17.9927815 15.6894236,16.2927815 C15.6894236,13.7427815 17.4894236,12.1427815 15.9894236,10.0427815 C14.4894236,7.94278153 16.1394236,3.14278153 17.7394236,7.14278153 Z" id="hair" fill="url(#linearGradient-14)" mask="url(#mask-59)" transform="translate(16.999224, 12.796391) scale(-1, 1) translate(-16.999224, -12.796391) "></path>
                    </g>
                    <g id="User-07b" transform="translate(40.000000, 40.000000)">
                        <mask id="mask-65" fill="white">
                            <use xlink:href="#path-64"></use>
                        </mask>
                        <use id="Mask" fill="url(#linearGradient-15)" fill-rule="nonzero" xlink:href="#path-64"></use>
                        <g id="Group-10" mask="url(#mask-65)">
                            <g transform="translate(6.900000, 3.300000)" id="Group-11">
                                <g transform="translate(7.050000, 10.050000) scale(-1, 1) translate(-7.050000, -10.050000) " id="Group-14" filter="url(#filter-66)">
                                    <g id="Path-48" transform="translate(0.500000, 1.600000)">
                                        <mask id="mask-68" fill="white">
                                            <use xlink:href="#path-67"></use>
                                        </mask>
                                        <use id="Combined-Shape" fill="url(#linearGradient-19)" xlink:href="#path-67"></use>
                                        <path d="M8.7,12.8 C7.23333333,12.6333333 6.03333333,12.2333333 5.1,11.6 C6.16666667,12.9333333 7.36666667,13.7333333 8.7,14 L8.7,12.8 Z" fill="#FC9F6A" fill-rule="nonzero" mask="url(#mask-68)"></path>
                                    </g>
                                    <path d="M2.05,10.35 C1.36101791,8.69295037 -1.4,5.31834496 0.979877974,3.21834496 C1.77987797,-0.681655038 6.2,-0.25 9.15,0.65 C11.1326967,1.25489053 12.629878,2.45 12.95,1.55 C14.95,3.21834496 13.948436,4.85 12.629878,5.31834496 C11.4332466,5.74338221 9.40969384,6.16834496 5.96932559,5.76834496 C5.35473737,5.69688886 5.48344489,7.57914411 5.155003,7.78267025 C4.66234016,8.08795946 4.27987797,6.16834496 2.92911567,6.74472194 C1.57835336,7.32109892 2.37987797,9.99369122 3.82987797,9.99369122 C4.32987797,9.99369122 4.57987797,11.368345 3.22987797,12.018345 C2.25,12.5 2.49767732,11.4266949 2.05,10.35 Z" id="Path-22" fill="url(#linearGradient-22)" fill-rule="nonzero"></path>
                                </g>
                            </g>
                        </g>
                        <g id="Group-23" mask="url(#mask-65)">
                            <g transform="translate(3.000000, 19.100000)">
                                <path d="M22.5,4.93078325 C23.1346819,6.2212366 23.6346819,8.35456993 24,11.3307832 L0,11.3307832 C0.365492777,8.35423643 0.865492777,6.2209031 1.5,4.93078325 C2.13450722,3.6406634 4.30448302,2.39729428 8.0099274,1.20067589 C11.0812626,2.4004858 12.9607765,2.400243 15.9870803,1.2 C19.6943448,2.39673548 21.8653181,3.6403299 22.5,4.93078325 Z" id="Combined-Shape" fill="url(#linearGradient-23)" fill-rule="nonzero"></path>
                                <g id="Group-22" stroke-width="1" fill="none" fill-rule="evenodd" transform="translate(10.800000, 1.400000)">
                                    <mask id="mask-70" fill="white">
                                        <use xlink:href="#path-69"></use>
                                    </mask>
                                    <use id="Mask" fill="url(#linearGradient-24)" fill-rule="nonzero" xlink:href="#path-69"></use>
                                    <mask id="mask-72" fill="white">
                                        <use xlink:href="#path-71"></use>
                                    </mask>
                                    <use id="Combined-Shape" fill="#645050" fill-rule="nonzero" xlink:href="#path-71"></use>
                                </g>
                                <path d="M15.2,0 L16.1,1.3 L13,3.2 L12,1.399 L11,3.2 L7.9,1.3 L8.8,0 L12,1.182 L15.2,0 Z" id="Combined-Shape" fill="#FFFFFF" fill-rule="evenodd"></path>
                            </g>
                        </g>
                    </g>
                    <g id="User-05a" transform="translate(0.000000, 40.000000)">
                        <mask id="mask-74" fill="white">
                            <use xlink:href="#path-73" transform="translate(15.000000, 15.000000) scale(-1, 1) translate(-15.000000, -15.000000) "></use>
                        </mask>
                        <use id="Mask" fill="url(#linearGradient-3)" fill-rule="nonzero" transform="translate(15.000000, 15.000000) scale(-1, 1) translate(-15.000000, -15.000000) " xlink:href="#path-73"></use>
                        <path d="M18.1,17.4 C18.1,17.4 18.1,17.8 18.1,18.6 C18.1,19.6666667 18.8666667,20.4333333 20.4,20.9 C18.6333333,22.2333333 16.8333333,22.9 15,22.9 C13.1666667,22.9 11.3666667,22.2333333 9.6,20.9 C11.1453736,20.4333333 11.9120402,19.6666667 11.9,18.6 C11.8819396,17 11.8939799,16.060161 11.8819396,13.3187874 C10.4487328,11.4611186 10.5406715,10.2142995 11.3243718,9.33750876 C13.0747906,7.37916959 16.3333333,6.73333333 21.1,7.4 C21.5447979,12.1995106 21.2614646,15.2995106 20.25,16.7 C19.8166667,17.3 19.1,17.5333333 18.1,17.4 Z" id="face" fill="url(#linearGradient-31)" mask="url(#mask-74)"></path>
                        <path d="M18.1,17.4 C16.6333333,17.2333333 15.4666667,16.8333333 14.6,16.2 C15.3333333,17.4333333 16.5,18.2333333 18.1,18.6 L18.1,17.4 Z" id="shade" fill="#FFDBC9" style="mix-blend-mode: multiply;" mask="url(#mask-74)"></path>
                        <path d="M25.5,23.9307832 C26.1346819,25.2212366 26.6346819,27.3545699 27,30.3307832 L3,30.3307832 C3.36549278,27.3542364 3.86549278,25.2209031 4.5,23.9307832 C5.13450722,22.6406634 7.30448302,21.3972943 11.0099274,20.2006759 C12.0812626,22.4004858 17.9607765,22.400243 18.9870803,20.2 C22.6943448,21.3967355 24.8653181,22.6403299 25.5,23.9307832 Z" id="body" fill="url(#linearGradient-32)" fill-rule="nonzero" mask="url(#mask-74)"></path>
                        <path d="M15.1,24.2 C15.3761424,24.2 15.6,24.0209139 15.6,23.8 C15.6,23.5790861 15.3761424,23.4 15.1,23.4 C14.8238576,23.4 14.6,23.5790861 14.6,23.8 C14.6,24.0209139 14.8238576,24.2 15.1,24.2 Z M15.1,26.2 C15.3761424,26.2 15.6,26.0209139 15.6,25.8 C15.6,25.5790861 15.3761424,25.4 15.1,25.4 C14.8238576,25.4 14.6,25.5790861 14.6,25.8 C14.6,26.0209139 14.8238576,26.2 15.1,26.2 Z M15.1,28.2 C15.3761424,28.2 15.6,28.0209139 15.6,27.8 C15.6,27.5790861 15.3761424,27.4 15.1,27.4 C14.8238576,27.4 14.6,27.5790861 14.6,27.8 C14.6,28.0209139 14.8238576,28.2 15.1,28.2 Z" id="buttons" fill="#FFFFFF" fill-rule="nonzero" mask="url(#mask-74)"></path>
                        <path d="M13.1154922,10.3208791 C12.7974537,10.0477496 12.4110792,9.86389136 11.864889,10.1476763 C10.5699543,10.8204876 11.55,13.4 12.7,13.4 C13.0000864,13.4 13.1492423,14.3422491 11.8134562,15.000341 C11.8134562,13.950341 10.2134562,11.350341 10.0739169,8.98309392 C8.46345625,8.38361652 8.86345625,5.98492144 9.96921841,5.98492144 C9.79236134,3.78576818 13.3134562,2.65034099 14.6768595,3.91193793 C16.0634562,2.25034099 19.5634562,3.10034099 19.7748286,4.54183149 C22.1814567,3.25705873 23.7634562,6.95034099 21.509962,8.38361652 C20.5827015,8.97337609 18.4134562,9.19811964 15.2822065,9.19811964 C14.809555,9.19811964 14.5447556,9.31549942 14.6768595,9.9 C14.9328312,11.0325607 14.3386893,11.7460198 13.1154922,10.3208791 Z" id="hair" fill="url(#linearGradient-33)" mask="url(#mask-74)"></path>
                    </g>
                    <g id="User-07a" transform="translate(80.000000, 0.000000)">
                        <mask id="mask-76" fill="white">
                            <use xlink:href="#path-75"></use>
                        </mask>
                        <use id="Mask" fill="url(#linearGradient-3)" fill-rule="nonzero" xlink:href="#path-75"></use>
                        <g id="Group-10" mask="url(#mask-76)">
                            <g transform="translate(6.900000, 3.300000)" id="Group-11">
                                <g transform="translate(7.050000, 10.050000) scale(-1, 1) translate(-7.050000, -10.050000) " id="Group-14" filter="url(#filter-77)">
                                    <g id="Path-48" transform="translate(0.500000, 1.600000)">
                                        <mask id="mask-79" fill="white">
                                            <use xlink:href="#path-78"></use>
                                        </mask>
                                        <use id="Combined-Shape" fill="url(#linearGradient-37)" xlink:href="#path-78"></use>
                                        <path d="M8.7,12.8 C7.23333333,12.6333333 6.03333333,12.2333333 5.1,11.6 C6.10931728,12.9411039 7.30931728,13.7411039 8.7,14 L8.7,12.8 Z" fill="#FFBE94" fill-rule="nonzero" mask="url(#mask-79)"></path>
                                    </g>
                                    <path d="M2.05,10.35 C1.36101791,8.69295037 -1.4,5.31834496 0.979877974,3.21834496 C1.77987797,-0.681655038 6.2,-0.25 9.15,0.65 C11.1326967,1.25489053 12.629878,2.45 12.95,1.55 C14.95,3.21834496 13.948436,4.85 12.629878,5.31834496 C11.4332466,5.74338221 9.40969384,6.16834496 5.96932559,5.76834496 C5.35473737,5.69688886 5.48344489,7.57914411 5.155003,7.78267025 C4.66234016,8.08795946 4.27987797,6.16834496 2.92911567,6.74472194 C1.57835336,7.32109892 2.37987797,9.99369122 3.82987797,9.99369122 C4.32987797,9.99369122 4.57987797,11.368345 3.22987797,12.018345 C2.25,12.5 2.49767732,11.4266949 2.05,10.35 Z" id="Path-22" fill="url(#linearGradient-40)"></path>
                                </g>
                            </g>
                        </g>
                        <g id="Group-21" mask="url(#mask-76)">
                            <g transform="translate(3.000000, 20.300000)">
                                <mask id="mask-81" fill="white">
                                    <use xlink:href="#path-80"></use>
                                </mask>
                                <use id="Combined-Shape" stroke="none" fill="url(#linearGradient-41)" fill-rule="evenodd" xlink:href="#path-80"></use>
                                <path d="M-1,3.3 L25,3.3 L25,4.1 L-1,4.1 L-1,3.3 Z M-1,5.3 L25,5.3 L25,6.1 L-1,6.1 L-1,5.3 Z M-1,7.3 L25,7.3 L25,8.1 L-1,8.1 L-1,7.3 Z" id="Combined-Shape" stroke="none" fill="url(#linearGradient-44)" fill-rule="evenodd" mask="url(#mask-81)"></path>
                            </g>
                        </g>
                    </g>
                    <g id="User-07c" transform="translate(40.000000, 0.000000)">
                        <mask id="mask-83" fill="white">
                            <use xlink:href="#path-82"></use>
                        </mask>
                        <use id="Mask" fill="url(#linearGradient-45)" xlink:href="#path-82"></use>
                        <g id="Group-10" mask="url(#mask-83)">
                            <g transform="translate(6.900000, 3.300000)" id="Group-11">
                                <g transform="translate(7.050000, 10.050000) scale(-1, 1) translate(-7.050000, -10.050000) " id="Group-14" filter="url(#filter-84)">
                                    <g id="Path-48" transform="translate(0.500000, 1.600000)">
                                        <mask id="mask-86" fill="white">
                                            <use xlink:href="#path-85"></use>
                                        </mask>
                                        <use id="Combined-Shape" fill="url(#linearGradient-49)" xlink:href="#path-85"></use>
                                        <path d="M8.7,12.8 C7.23333333,12.6333333 6.03333333,12.2333333 5.1,11.6 C5.9,12.9333333 7.1,13.7333333 8.7,14 L8.7,12.8 Z" fill="#DB6F3D" fill-rule="nonzero" mask="url(#mask-86)"></path>
                                    </g>
                                    <path d="M2.05,10.35 C1.36101791,8.69295037 -1.4,5.31834496 0.979877974,3.21834496 C1.77987797,-0.681655038 6.2,-0.25 9.15,0.65 C11.1326967,1.25489053 12.629878,2.45 12.95,1.55 C14.95,3.21834496 13.948436,4.85 12.629878,5.31834496 C11.4332466,5.74338221 9.40969384,6.16834496 5.96932559,5.76834496 C5.35473737,5.69688886 5.48344489,7.57914411 5.155003,7.78267025 C4.66234016,8.08795946 4.27987797,6.16834496 2.92911567,6.74472194 C1.57835336,7.32109892 2.37987797,9.99369122 3.82987797,9.99369122 C4.32987797,9.99369122 4.57987797,11.368345 3.22987797,12.018345 C2.25,12.5 2.49767732,11.4266949 2.05,10.35 Z" id="Path-22" fill="#FFFFFF"></path>
                                </g>
                            </g>
                        </g>
                        <g id="Group-21" mask="url(#mask-83)">
                            <g transform="translate(3.000000, 20.300000)">
                                <mask id="mask-88" fill="white">
                                    <use xlink:href="#path-87"></use>
                                </mask>
                                <use id="Combined-Shape" stroke="none" fill="url(#linearGradient-23)" fill-rule="nonzero" xlink:href="#path-87"></use>
                                <path d="M-1,3.3 L25,3.3 L25,4.1 L-1,4.1 L-1,3.3 Z M-1,5.3 L25,5.3 L25,6.1 L-1,6.1 L-1,5.3 Z M-1,7.3 L25,7.3 L25,8.1 L-1,8.1 L-1,7.3 Z" id="Combined-Shape" stroke="none" fill="#6E5C5A" fill-rule="nonzero" mask="url(#mask-88)"></path>
                            </g>
                        </g>
                    </g>
                    <g id="User-04c" transform="translate(15.000000, 15.000000) scale(-1, 1) translate(-15.000000, -15.000000) ">
                        <mask id="mask-90" fill="white">
                            <use xlink:href="#path-89" transform="translate(15.000000, 15.000000) scale(-1, 1) translate(-15.000000, -15.000000) "></use>
                        </mask>
                        <use id="Mask" fill="url(#linearGradient-45)" transform="translate(15.000000, 15.000000) scale(-1, 1) translate(-15.000000, -15.000000) " xlink:href="#path-89"></use>
                        <path d="M24.2,23.5 C24.6888889,24.4333333 25.0555556,26.6 25.3,30 L4.7,30 C4.94444444,26.6 5.31111111,24.4333333 5.8,23.5 C6.53333333,22.1 9.6,20.5 15,18.7 C20.4,20.5 23.4666667,22.1 24.2,23.5 Z" id="Rectangle" fill="url(#linearGradient-56)" fill-rule="nonzero" mask="url(#mask-90)" transform="translate(15.000000, 24.350000) scale(-1, 1) translate(-15.000000, -24.350000) "></path>
                        <path d="M15.35,24 C15.7642136,24 16.1,23.8209139 16.1,23.6 C16.1,23.3790861 15.7642136,23.2 15.35,23.2 C14.9357864,23.2 14.6,23.3790861 14.6,23.6 C14.6,23.8209139 14.9357864,24 15.35,24 Z M15.35,26 C15.7642136,26 16.1,25.8209139 16.1,25.6 C16.1,25.3790861 15.7642136,25.2 15.35,25.2 C14.9357864,25.2 14.6,25.3790861 14.6,25.6 C14.6,25.8209139 14.9357864,26 15.35,26 Z M15.35,28 C15.7642136,28 16.1,27.8209139 16.1,27.6 C16.1,27.3790861 15.7642136,27.2 15.35,27.2 C14.9357864,27.2 14.6,27.3790861 14.6,27.6 C14.6,27.8209139 14.9357864,28 15.35,28 Z" id="Combined-Shape" fill="#FFFFFF" fill-rule="nonzero" mask="url(#mask-90)" transform="translate(15.350000, 25.600000) scale(-1, 1) translate(-15.350000, -25.600000) "></path>
                        <path d="M22.8191296,17.5411059 L6.57337407,15.5777926 C5.7724351,11.3259309 6.7224351,8.64703532 9.42337407,7.54110595 C10.6719656,3.45 15.5317334,3.7827648 16.9091549,4.1162898 C21.596732,5.25132662 23.5667235,9.72626534 22.8191296,17.5411059 Z" id="Combined-Shape" fill="url(#linearGradient-57)" mask="url(#mask-90)" transform="translate(14.635983, 10.737198) scale(-1, 1) translate(-14.635983, -10.737198) "></path>
                        <path d="M10.5303132,19.9 L10.5303132,13.9 C8.02823789,13.8625811 8.51622467,9.52679553 11.0303132,10.85 C11.4803132,11.05 12.6303132,10.5 12.2303132,9.15 C14.9303132,11.15 18.6927545,7.63990992 18.9303132,9.8 C19.397832,14.0510878 18.4932594,17.5451576 16.0945337,17.5454083 C15.8590134,17.545433 15.6295496,17.553394 15.3303132,17.5 L15.3303132,19.9 C14.5473257,20.3666667 13.7643382,20.6 12.9813508,20.6 C12.1983633,20.6 11.3813508,20.3666667 10.5303132,19.9 Z" id="Mask" fill="#FFDBC9" mask="url(#mask-90)" transform="translate(13.965157, 14.834126) scale(-1, 1) translate(-13.965157, -14.834126) "></path>
                        <path d="M16.1,17.5 L16.1,18.3 C14.6,18.3 13.4333333,17.5833333 12.6,16.15 C13.6,16.8166667 14.7666667,17.2666667 16.1,17.5 Z" id="Path-2" fill="#FFBC9E" mask="url(#mask-90)" transform="translate(14.350000, 17.225000) scale(-1, 1) translate(-14.350000, -17.225000) "></path>
                        <path d="M14.9966903,20.4974905 C15.6808057,20.4647815 17.4,20.1107906 17.4,19.3460304 L17.4,18.7 C17.5834036,18.7 18.1085402,19.1332355 18.3785918,19.5 C19.4462379,20.95 18.2619954,22.25 17.2962379,22.25 C16.0775724,22.25 15.2701869,21.2318477 15,20.7419699 C14.7298131,21.2318477 13.9224276,22.25 12.7037621,22.25 C11.7380046,22.25 10.5537621,20.95 11.6214082,19.5 C11.8914598,19.1332355 12.4165964,18.7 12.6,18.7 L12.6,19.3460304 C12.6,20.1107908 14.2739528,20.4647816 14.9966907,20.4974905 L14.9966903,20.4974905 Z" id="Combined-Shape" fill="#FFFFFF" fill-rule="nonzero" mask="url(#mask-90)" transform="translate(15.000000, 20.475000) scale(-1, 1) translate(-15.000000, -20.475000) "></path>
                    </g>
                </g>
            </g>
        </g>
        <g id="Player" transform="translate(225.000000, 37.000000)">
            <g id="Rectangle">
                <use fill="black" fill-opacity="1" filter="url(#filter-92)" xlink:href="#path-91"></use>
                <use fill="#FFFFFF" fill-rule="evenodd" xlink:href="#path-91"></use>
            </g>
            <rect id="Subtitle" fill-opacity="0.1" fill="#000000" x="15" y="26" width="77" height="6"></rect>
            <rect id="Subtitle-Copy-2" fill-opacity="0.1" fill="#000000" x="15" y="48" width="44" height="6"></rect>
            <rect id="Subtitle-Copy-3" fill-opacity="0.1" fill="#000000" x="64" y="48" width="44" height="6"></rect>
            <rect id="Title" fill="#000000" x="15" y="15" width="137" height="6"></rect>
            <g id="Play-Button" transform="translate(177.000000, 70.000000)">
                <circle id="Oval" fill="#000000" cx="14" cy="14" r="14"></circle>
                <path d="M10,9.36967304 C10,8.3294452 11.039983,7.67000202 11.890198,8.17114966 L19.7393829,12.8018414 C20.6202057,13.3212258 20.6202057,14.6787742 19.7393829,15.1981586 L11.8908782,19.8288503 C11.0406632,20.329998 10.0006802,19.6705548 10.0006802,18.630327 L10.0006802,9.36967304 L10,9.36967304 Z" id="Path" fill="#FFFFFF" fill-rule="nonzero"></path>
            </g>
        </g>
        <g id="Twitter" transform="translate(193.000000, 201.000000)">
            <g id="Rectangle">
                <use fill="black" fill-opacity="1" filter="url(#filter-95)" xlink:href="#path-94"></use>
                <use fill="url(#linearGradient-93)" fill-rule="evenodd" xlink:href="#path-94"></use>
            </g>
            <path d="M50.296,24.632 C50.8533333,36.944 41.672,50.672 25.416,50.672 C20.472,50.672 15.872,49.224 11.9973333,46.7386667 C16.6426667,47.2853333 21.2773333,45.9973333 24.9573333,43.1146667 C21.1253333,43.0426667 17.8933333,40.512 16.7813333,37.0346667 C18.1546667,37.296 19.504,37.2186667 20.7333333,36.8853333 C16.5226667,36.04 13.6186667,32.248 13.712,28.192 C14.8906667,28.848 16.2426667,29.2426667 17.6746667,29.288 C13.7786667,26.6826667 12.6746667,21.536 14.9653333,17.6 C19.2826667,22.896 25.7333333,26.3813333 33.008,26.7466667 C31.7306667,21.272 35.888,16 41.5386667,16 C44.0533333,16 46.3306667,17.0613333 47.9253333,18.7653333 C49.92,18.3733333 51.7946667,17.6453333 53.488,16.6426667 C52.832,18.688 51.4453333,20.4026667 49.64,21.4853333 C51.4106667,21.272 53.0986667,20.8026667 54.6666667,20.1066667 C53.496,21.856 52.0106667,23.3973333 50.296,24.632 Z" id="Path" fill="#FFFFFF" fill-rule="nonzero"></path>
        </g>
    </g>
</svg>
