<?xml version="1.0" encoding="UTF-8"?>
<svg viewBox="0 0 1000 707" version="1.1" xmlns="http://www.w3.org/2000/svg" xmlns:xlink="http://www.w3.org/1999/xlink">
    <title>Artboard</title>
    <g id="Artboard" stroke="none" stroke-width="1" fill="none" fill-rule="evenodd">
        <g id="day20-rocket" transform="translate(0.200000, 3.300000)">
            <path d="M489.9,360.2 C480.5,361.4 473,374.6 471.6,385.5 C471.2,388.7 471,391.8 471,395 C471,405.4 473.2,415.3 477.2,425.4 C481.2,435.3 487.2,445.4 494.4,451.2 C501.7,445.4 507.6,435.3 511.6,425.4 C515.6,415.3 517.8,405.4 517.8,395 C517.8,391.8 517.6,388.7 517.2,385.5 C515.8,374.5 508.3,361.4 498.9,360.2 C496,359.9 492.9,359.9 489.9,360.2 Z" id="XMLID_29_" stroke="#601B23" stroke-width="6" stroke-linecap="round" stroke-linejoin="round"></path>
            <path d="M489.9,360.2 C480.5,361.4 473,374.6 471.6,385.5 C471.2,388.7 471,391.8 471,395 C471,405.4 473.2,415.3 477.2,425.4 C481.2,435.3 487.2,445.4 494.4,451.2 C501.7,445.4 507.6,435.3 511.6,425.4 C515.6,415.3 517.8,405.4 517.8,395 C517.8,391.8 517.6,388.7 517.2,385.5 C515.8,374.5 508.3,361.4 498.9,360.2 C496,359.9 492.9,359.9 489.9,360.2 Z" id="XMLID_35_" fill="#E36535" fill-rule="nonzero"></path>
            <path d="M536.4,422.9 C536.4,441.5 532.5,459.3 525.3,477.4 C525.1,478 524.8,478.6 524.5,479.3 C517.3,496.5 507,513.7 494.5,523.8 C481.6,513.4 471.1,495.5 463.8,477.8 C463.7,477.7 463.7,477.6 463.6,477.4 C456.4,459.3 452.5,441.5 452.5,422.9 C452.5,417.2 452.9,411.6 453.6,405.8 C456,386.4 469.2,363 485.7,360.5 C485.9,360.5 486.1,360.4 486.3,360.4 C491.5,359.8 496.8,359.8 502,360.3 C502.2,360.3 502.5,360.3 502.7,360.4 C519.5,362.5 533,386.2 535.4,405.8 C536,411.6 536.4,417.2 536.4,422.9 Z" id="XMLID_178_" fill="#F4A045" fill-rule="nonzero"></path>
            <path d="M536.4,422.9 C536.4,441.5 532.5,459.3 525.3,477.4 C525.1,478 524.8,478.6 524.5,479.3 C517.3,496.5 507,513.7 494.5,523.8 C481.6,513.4 471.1,495.5 463.8,477.8 C463.7,477.7 463.7,477.6 463.6,477.4 C456.4,459.3 452.5,441.5 452.5,422.9 C452.5,417.2 452.9,411.6 453.6,405.8 C456,386.4 469.2,363 485.7,360.5 C485.9,360.5 486.1,360.4 486.3,360.4 C491.5,359.8 496.8,359.8 502,360.3 C502.2,360.3 502.5,360.3 502.7,360.4 C519.5,362.5 533,386.2 535.4,405.8 C536,411.6 536.4,417.2 536.4,422.9 Z" id="XMLID_177_" stroke="#301E95" stroke-width="6" stroke-linecap="round" stroke-linejoin="round"></path>
            <path d="M781.1,594.8 C781.1,594.3 781.1,593.8 781.1,593.2 C781.1,567.7 763.1,546.4 739.2,541.3 C730,509.8 701,486.7 666.5,486.7 C637.8,486.7 612.8,502.7 600,526.2 C591.1,517.9 579.2,512.7 566.1,512.7 C558.6,512.7 551.5,514.4 545.1,517.3 C537.3,505.2 530.4,492.5 524.5,479.1 C509.9,446.1 501.8,409.3 501.8,370.7 C501.8,367.2 501.9,363.8 502,360.3 C503.7,315.6 516.2,273.7 537.1,237.1 L450.6,237.1 C471.5,273.7 484,315.7 485.7,360.4 C485.8,363.8 485.9,367.2 485.9,370.6 C485.9,408.6 478,444.9 463.8,477.7 C454.5,499.1 442.6,519.1 428.3,537.2 C416.2,522.2 397.7,512.7 377,512.7 C356.2,512.7 337.7,522.3 325.6,537.3 C315.9,531.6 304.7,528.3 292.6,528.3 C273.2,528.3 255.7,536.9 243.8,550.4 C226.2,524.3 196.4,507.1 162.6,507.1 C108.6,507.1 64.8,550.9 64.8,604.9 C64.8,605.2 64.8,605.5 64.8,605.8 C28.2,624.4 2.5,661.4 0,704.7 L236,704.7 L719.9,704.7 C764.1,630.7 784.5,594.066667 781.1,594.8 Z" id="XMLID_62_" fill="#FFFFFF" fill-rule="nonzero"></path>
            <circle id="Oval" fill="#FFFFFF" cx="804.8" cy="668.7" r="94"></circle>
            <circle id="Oval" fill="#FFFFFF" cx="941.8" cy="704.7" r="58"></circle>
            <circle id="Oval" fill="#FFFFFF" cx="873.8" cy="654.7" r="57"></circle>
            <path d="M373.8,207.5 L341.2,220.2 L341.2,158.3 L441.3,80.2 L441.3,197.3 L417.1,210 C404.2,203.2 388.5,201.8 373.8,207.5 Z" id="XMLID_79_" fill="#818CF8" fill-rule="nonzero"></path>
            <path d="M330.6,236.4 C320.4,221.6 314.5,204.1 314.5,185.4 C314.5,161.7 323.8,140 339.3,123.3 C354.8,140 364.2,161.7 364.3,185.4 C364.3,204.2 358.4,221.6 348.3,236.4 L330.6,236.4 Z" id="XMLID_19_" fill="#CF264D" fill-rule="nonzero"></path>
            <path d="M341.2,220.2 L373.6,207.6 C374,199 373.4,190.2 371.8,181.4 C369.4,168.2 364.9,155.8 358.7,144.6 L341.2,158.3 L341.2,220.2 L341.2,220.2 Z" id="XMLID_83_" fill="#7362E8" fill-rule="nonzero" opacity="0.72"></path>
            <polygon id="XMLID_63_" fill="#D2CBFF" fill-rule="nonzero" opacity="0.23" points="345.4 175.6 441.4 100.8 441.4 80.2 341.2 158.2 341.2 220.2 345.4 218.6"></polygon>
            <path d="M401.5,204.7 C407,205.6 412.2,207.4 417.1,210 L441.3,197.3 L441.3,80.2 L399.1,113.1 C397,125.8 396,139.1 396,152.8 C396.1,170.9 398,188.4 401.5,204.7 Z" id="XMLID_69_" fill="#6466F1" fill-rule="nonzero" opacity="0.72"></path>
            <path d="M373.8,207.5 L341.2,220.2 L341.2,158.3 L441.3,80.2 L441.3,197.3 L417.1,210 C404.2,203.2 388.5,201.8 373.8,207.5 Z" id="XMLID_72_" stroke="#301E95" stroke-width="6" stroke-linecap="round" stroke-linejoin="round"></path>
            <path d="M330.6,236.4 C320.4,221.6 314.5,204.1 314.5,185.4 C314.5,161.7 323.8,140 339.3,123.3 C354.8,140 364.2,161.7 364.3,185.4 C364.3,204.2 358.4,221.6 348.3,236.4 L330.6,236.4 Z" id="XMLID_34_" fill="#CF264D" fill-rule="nonzero"></path>
            <path d="M337.8,123.3 C339,124.6 340.2,126 341.3,127.4 C330.9,143.4 324.9,162.2 324.8,182.2 C324.8,202 327.8,220.5 338,236.5 L328.8,236.5 C318.7,221.7 312.8,204.2 312.8,185.5 C312.9,161.7 322.3,140 337.8,123.3 Z" id="XMLID_37_" fill="#F4A15D" fill-rule="nonzero" opacity="0.23"></path>
            <path d="M337.8,123.3 C338.2,123.7 338.6,124.2 339,124.7 C327.3,142 320.6,162.3 320.5,184.1 C320.5,203 325.6,220.8 334.5,236.5 L328.8,236.5 C318.7,221.7 312.8,204.2 312.8,185.5 C312.9,161.7 322.3,140 337.8,123.3 Z" id="XMLID_4_" fill="#F4A15D" fill-rule="nonzero" opacity="0.32"></path>
            <path d="M364.3,185.4 C364.3,161.7 354.9,140.1 339.3,123.3 C338.1,124.6 336.9,126 335.8,127.4 C346.2,143.4 352.2,162.2 352.3,182.2 C352.3,202 346.5,220.5 336.3,236.5 L348.3,236.5 C358.4,221.6 364.3,204.1 364.3,185.4 Z" id="XMLID_9_" fill="#A5143A" fill-rule="nonzero" opacity="0.37"></path>
            <path d="M364.3,185.4 C364.3,161.7 354.9,140.1 339.3,123.3 C338.9,123.7 338.5,124.2 338.1,124.7 C349.8,142 356.5,162.3 356.6,184.1 C356.6,203 351.5,220.8 342.6,236.5 L348.3,236.5 C358.4,221.6 364.3,204.1 364.3,185.4 Z" id="XMLID_45_" fill="#A5143A" fill-rule="nonzero" opacity="0.72"></path>
            <path d="M339.3,123.3 C338.1,124.6 336.9,126 335.8,127.4 C346.2,143.4 352.2,162.2 352.3,182.2 C352.3,202 346.5,220.5 336.3,236.5 L348.3,236.5 C358.4,221.7 364.3,204.2 364.3,185.5 C364.2,161.7 354.8,140 339.3,123.3 Z" id="XMLID_10_" fill="#A5143A" fill-rule="nonzero" opacity="0.37"></path>
            <path d="M339.3,123.3 C338.9,123.7 338.5,124.2 338.1,124.7 C349.8,142 356.5,162.3 356.6,184.1 C356.6,203 351.5,220.8 342.6,236.5 L348.3,236.5 C358.4,221.7 364.3,204.2 364.3,185.5 C364.2,161.7 354.8,140 339.3,123.3 Z" id="XMLID_16_" fill="#A5143A" fill-rule="nonzero" opacity="0.72"></path>
            <path d="M350.7,141.3 C347,134.8 342.6,128.8 337.5,123.2 C332.4,128.7 328,134.8 324.3,141.3 L350.7,141.3 Z" id="XMLID_95_" fill="#601B23" fill-rule="nonzero"></path>
            <path d="M330.6,236.4 C320.4,221.6 314.5,204.1 314.5,185.4 C314.5,161.7 323.8,140 339.3,123.3 C354.8,140 364.2,161.7 364.3,185.4 C364.3,204.2 358.4,221.6 348.3,236.4 L330.6,236.4 Z" id="XMLID_28_" stroke="#601B23" stroke-width="6" stroke-linecap="round" stroke-linejoin="round"></path>
            <path d="M460.5,313.6 C460.5,313.6 448.4,316.2 431,333.6 C424.7,339.9 414.8,352.7 407.5,362.4 C404.5,366.4 398.1,364.4 398,359.4 L395.6,252.9 C395.1,249.9 395.9,246.8 397.8,244.5 L424,211.9 L460.5,313.6 Z" id="XMLID_31_" fill="#818CF8" fill-rule="nonzero"></path>
            <path d="M397.8,361.5 L397.8,361.5 C403.5,360.7 407.8,355.8 407.9,350 L409,251 C408.5,248 409.3,244.9 411.2,242.6 L427.6,222.1 L423.9,211.9 L397.8,244.4 C395.9,246.8 395.1,249.8 395.6,252.8 L397.8,361.5 Z" id="XMLID_24_" fill="#FFFFFF" fill-rule="nonzero" opacity="0.32"></path>
            <path d="M460.5,313.6 L424,211.9 L409.5,230 C417.3,260 429.6,290.5 446.2,320.9 C455,314.8 460.5,313.6 460.5,313.6 Z" id="XMLID_84_" fill="#6466F1" fill-rule="nonzero" opacity="0.72"></path>
            <path d="M460.5,313.6 C460.5,313.6 448.4,316.2 431,333.6 C424.7,339.9 414.8,352.7 407.5,362.4 C404.5,366.4 398.1,364.4 398,359.4 L395.6,252.9 C395.1,249.9 395.9,246.8 397.8,244.5 L424,211.9 L460.5,313.6 Z" id="XMLID_21_" stroke="#301E95" stroke-width="6" stroke-linecap="round" stroke-linejoin="round"></path>
            <line x1="321.1" y1="223.2" x2="354" y2="223.2" id="XMLID_32_" stroke="#601B23" stroke-width="4" stroke-linecap="round" stroke-linejoin="round"></line>
            <path d="M330.6,236.4 C320.4,221.6 314.5,204.1 314.5,185.4 C314.5,161.7 323.8,140 339.3,123.3 C354.8,140 364.2,161.7 364.3,185.4 C364.3,204.2 358.4,221.6 348.3,236.4 L330.6,236.4 Z" id="XMLID_192_" fill="#CF264D" fill-rule="nonzero"></path>
            <path d="M330.6,236.4 C320.4,221.6 314.5,204.1 314.5,185.4 C314.5,161.7 323.8,140 339.3,123.3 C354.8,140 364.2,161.7 364.3,185.4 C364.3,204.2 358.4,221.6 348.3,236.4 L330.6,236.4 Z" id="XMLID_161_" fill="#818CF8" fill-rule="nonzero"></path>
            <path d="M337.8,123.3 C339,124.6 340.2,126 341.3,127.4 C330.9,143.4 324.9,162.2 324.8,182.2 C324.8,202 327.8,220.5 338,236.5 L328.8,236.5 C318.7,221.7 312.8,204.2 312.8,185.5 C312.9,161.7 322.3,140 337.8,123.3 Z" id="XMLID_155_" fill="#DAD4FF" fill-rule="nonzero" opacity="0.23"></path>
            <path d="M337.8,123.3 C338.2,123.7 338.6,124.2 339,124.7 C327.3,142 320.6,162.3 320.5,184.1 C320.5,203 325.6,220.8 334.5,236.5 L328.8,236.5 C318.7,221.7 312.8,204.2 312.8,185.5 C312.9,161.7 322.3,140 337.8,123.3 Z" id="XMLID_147_" fill="#FFFFFF" fill-rule="nonzero" opacity="0.32"></path>
            <path d="M364.3,185.4 C364.3,161.7 354.9,140.1 339.3,123.3 C338.1,124.6 336.9,126 335.8,127.4 C346.2,143.4 352.2,162.2 352.3,182.2 C352.3,202 346.5,220.5 336.3,236.5 L348.3,236.5 C358.4,221.6 364.3,204.1 364.3,185.4 Z" id="XMLID_144_" fill="#A5143A" fill-rule="nonzero" opacity="0.37"></path>
            <path d="M364.3,185.4 C364.3,161.7 354.9,140.1 339.3,123.3 C338.9,123.7 338.5,124.2 338.1,124.7 C349.8,142 356.5,162.3 356.6,184.1 C356.6,203 351.5,220.8 342.6,236.5 L348.3,236.5 C358.4,221.6 364.3,204.1 364.3,185.4 Z" id="XMLID_140_" fill="#A5143A" fill-rule="nonzero" opacity="0.72"></path>
            <path d="M339.3,123.3 C338.1,124.6 336.9,126 335.8,127.4 C346.2,143.4 352.2,162.2 352.3,182.2 C352.3,202 346.5,220.5 336.3,236.5 L348.3,236.5 C358.4,221.7 364.3,204.2 364.3,185.5 C364.2,161.7 354.8,140 339.3,123.3 Z" id="XMLID_134_" fill="#7362E8" fill-rule="nonzero" opacity="0.37"></path>
            <path d="M339.3,123.3 C338.9,123.7 338.5,124.2 338.1,124.7 C349.8,142 356.5,162.3 356.6,184.1 C356.6,203 351.5,220.8 342.6,236.5 L348.3,236.5 C358.4,221.7 364.3,204.2 364.3,185.5 C364.2,161.7 354.8,140 339.3,123.3 Z" id="XMLID_130_" fill="#7362E8" fill-rule="nonzero" opacity="0.72"></path>
            <path d="M352.5,141.3 C348.8,134.8 344.4,128.8 339.3,123.2 C334.2,128.7 329.8,134.8 326.1,141.3 L352.5,141.3 Z" id="XMLID_67_" fill="#301E95" fill-rule="nonzero"></path>
            <path d="M330.6,236.4 C320.4,221.6 314.5,204.1 314.5,185.4 C314.5,161.7 323.8,140 339.3,123.3 C354.8,140 364.2,161.7 364.3,185.4 C364.3,204.2 358.4,221.6 348.3,236.4 L330.6,236.4 Z" id="XMLID_39_" stroke="#301E95" stroke-width="6" stroke-linecap="round" stroke-linejoin="round"></path>
            <line x1="321.1" y1="223.2" x2="354" y2="223.2" id="XMLID_12_" stroke="#301E95" stroke-width="4" stroke-linecap="round" stroke-linejoin="round"></line>
            <path d="M609.3,207.5 L641.9,220.2 L641.9,158.3 L541.8,80.2 L541.8,197.3 L566,210 C578.9,203.2 594.6,201.8 609.3,207.5 Z" id="XMLID_196_" fill="#818CF8" fill-rule="nonzero"></path>
            <path d="M641.9,220.2 L609.5,207.6 C609.1,199 609.7,190.2 611.3,181.4 C613.7,168.2 618.2,155.8 624.4,144.6 L641.9,158.3 L641.9,220.2 L641.9,220.2 Z" id="XMLID_188_" fill="#7362E8" fill-rule="nonzero" opacity="0.72"></path>
            <polygon id="XMLID_181_" fill="#E3DFFF" fill-rule="nonzero" opacity="0.23" points="637.8 175.6 541.8 100.8 541.8 80.2 641.9 158.2 641.9 220.2 637.8 218.6"></polygon>
            <path d="M581.6,204.7 C576.1,205.6 570.9,207.4 566,210 L541.8,197.3 L541.8,80.2 L584,113.1 C586.1,125.8 587.1,139.1 587.1,152.8 C587.1,170.9 585.2,188.4 581.6,204.7 Z" id="XMLID_175_" fill="#7362E8" fill-rule="nonzero" opacity="0.72"></path>
            <path d="M609.3,207.5 L641.9,220.2 L641.9,158.3 L541.8,80.2 L541.8,197.3 L566,210 C578.9,203.2 594.6,201.8 609.3,207.5 Z" id="XMLID_166_" stroke="#301E95" stroke-width="6" stroke-linecap="round" stroke-linejoin="round"></path>
            <path d="M522.7,313.6 C522.7,313.6 534.8,316.2 552.2,333.6 C558.5,339.9 568.4,352.7 575.7,362.4 C578.7,366.4 585.1,364.4 585.2,359.4 L587.6,252.9 C588.1,249.9 587.3,246.8 585.4,244.5 L559.2,211.9 L522.7,313.6 Z" id="XMLID_59_" fill="#818CF8" fill-rule="nonzero"></path>
            <path d="M585.3,361.5 L585.3,361.5 C579.6,360.7 575.3,355.8 575.2,350 L574.1,251 C574.6,248 573.8,244.9 571.9,242.6 L555.5,222.1 L559.2,211.9 L585.4,244.5 C587.3,246.9 588.1,249.9 587.6,252.9 L585.3,361.5 Z" id="XMLID_48_" fill="#6466F1" fill-rule="nonzero" opacity="0.72"></path>
            <path d="M522.7,313.6 L559.2,211.9 L573.7,230 C565.9,260 553.6,290.5 537,320.9 C528.2,314.8 522.7,313.6 522.7,313.6 Z" id="XMLID_47_" fill="#7362E8" fill-rule="nonzero" opacity="0.72"></path>
            <path d="M522.7,313.6 C522.7,313.6 534.8,316.2 552.2,333.6 C558.5,339.9 568.4,352.7 575.7,362.4 C578.7,366.4 585.1,364.4 585.2,359.4 L587.6,252.9 C588.1,249.9 587.3,246.8 585.4,244.5 L559.2,211.9 L522.7,313.6 Z" id="XMLID_33_" stroke="#301E95" stroke-width="6" stroke-linecap="round" stroke-linejoin="round"></path>
            <path d="M522.2,370.8 C523.3,358.9 521.7,347.7 501.7,318.2 C498.4,313.5 490.5,313.5 487.2,318.2 C467.2,347.8 465.6,359 466.7,370.8 C466.9,372.3 469.6,374 471.3,373.4 C482.8,367.5 506.1,367.5 517.6,373.4 C519.3,374 522,372.4 522.2,370.8 Z" id="XMLID_22_" fill="#4E8280" fill-rule="nonzero"></path>
            <g id="XMLID_107_" opacity="0.32" transform="translate(466.439640, 314.635156)" fill="#F4A15D" fill-rule="nonzero">
                <g id="XMLID_222_">
                    <g id="XMLID_225_">
                        <path d="M10.36036,56.1648438 C9.26035996,44.2648438 10.86036,33.0648438 30.86036,3.56484375 C31.46036,2.66484375 32.26036,1.96484375 33.06036,1.46484375 C29.26036,-1.03515625 23.46036,-0.33515625 20.76036,3.56484375 C0.760359957,33.1648438 -0.839640043,44.3648437 0.260359957,56.1648438 C0.460359957,57.6648438 3.16035996,59.3648438 4.86035996,58.7648438 C6.56035996,57.9648438 8.46035996,57.1648438 10.46036,56.5648438 C10.46036,56.4648438 10.36036,56.3648437 10.36036,56.1648438 Z" id="XMLID_226_"></path>
                    </g>
                    <g id="XMLID_223_" transform="translate(33.060360, 54.355906)">
                        <path d="M-5.68434189e-14,0.208937915 C6.9,0.708937915 13.4,2.10893791 18.1,4.40893791 C19.6,5.00893791 22,3.60893791 22.6,2.20893791 C16,0.308937915 7.8,-0.391062085 -5.68434189e-14,0.208937915 Z" id="XMLID_224_"></path>
                    </g>
                </g>
            </g>
            <g id="XMLID_46_" transform="translate(489.800000, 314.677048)" fill="#37605D" fill-rule="nonzero">
                <g id="XMLID_169_">
                    <path d="M0.9,3.52295203 C0.6,3.12295203 0.3,2.82295203 0,2.52295203 C3.7,-1.17704797 10.6,-0.777047971 13.6,3.52295203 C33.6,33.122952 35.2,44.322952 34.1,56.122952 C33.9,57.622952 31.2,59.322952 29.5,58.722952 C27.2,57.522952 24.4,56.622952 21.4,55.922952 C22.5,44.122952 20.8,32.922952 0.9,3.52295203 Z" id="XMLID_170_"></path>
                </g>
            </g>
            <path d="M522.2,370.8 C523.3,358.9 521.7,347.7 501.7,318.2 C498.4,313.5 490.5,313.5 487.2,318.2 C467.2,347.8 465.6,359 466.7,370.8 C466.9,372.3 469.6,374 471.3,373.4 C482.8,367.5 506.1,367.5 517.6,373.4 C519.3,374 522,372.4 522.2,370.8 Z" id="XMLID_17_" stroke="#301E95" stroke-width="6" stroke-linecap="round" stroke-linejoin="round"></path>
            <path d="M517,334.9 C552.562706,276.685888 571.022541,219.269911 573.369535,167.473096 C574.13095,150.669114 573.196503,134.456544 570.6,119 C561.4,64.2 531.8,24.7 494.4,5.68434189e-14 C457,24.7 427.4,64.2 418.2,119 C407.6,182.1 424.8,257.8 471.8,334.9 L517,334.9 Z" id="XMLID_15_" fill="#818CF8" fill-rule="nonzero"></path>
            <path d="M454,120.1 C460,70.5 475.6,31.1 496.6,1.6 C495.9,1.1 495.1,0.6 494.4,0.1 C457,24.8 427.4,64.3 418.2,119.1 C407.6,182.2 424.8,257.9 471.8,335 L481.3,335 C455.2,257.9 446.4,183.8 454,120.1 Z" id="XMLID_20_" fill="#E8E5FF" fill-rule="nonzero" opacity="0.23"></path>
            <path d="M570.6,119 C561.5,64.6 532.3,25.3 495.2,0.6 C502.1,11.7 510.9,27.7 518.3,48 C531.8,84.9 533.3,115.3 534.1,134.4 C537.7,220.3 504.8,315.3 497.9,335 L517,335 C564.1,257.8 581.2,182.1 570.6,119 Z" id="XMLID_54_" fill="#7362E8" fill-rule="nonzero" opacity="0.37"></path>
            <path d="M570.6,119 C561.4,64.2 531.8,24.7 494.4,5.68434189e-14 C493.4,0.6 492.5,1.3 491.5,1.9 C505.7,13 516.5,24.9 524.7,36.3 C598.3,138.7 527.7,292 518,312.3 C517.6,298.5 515.8,281.4 510.7,262.3 C507.4,250.1 503.4,239.4 499.4,230.3 C497.9,264.2 496.4,298.1 494.9,332 L507.3,332 C507,333 506.7,333.9 506.3,334.9 L516.8,334.9 C564.1,257.8 581.2,182.1 570.6,119 Z" id="XMLID_5_" fill="#6466F1" fill-rule="nonzero" opacity="0.72"></path>
            <path d="M430.8,136.4 C432.2,120.4 437.4,68.4 469.5,25.7 C474.6,19 482.2,9.9 481.6,9.4 C480.7,8.6 463.1,24.5 450.6,41.4 C434.9,62.5 423.4,88.4 418.3,119 C407.7,182.1 424.9,257.8 471.9,334.9 L476,334.9 C463.1,309.2 454.6,286 448.8,267.7 C445,255.4 438.3,233.6 434.1,204.4 C431.4,184.8 428.4,163.8 430.8,136.4 Z" id="XMLID_6_" fill="#F6F4FF" fill-rule="nonzero" opacity="0.32"></path>
            <circle id="XMLID_13_" stroke="#7362E8" stroke-width="6" fill="#7362E8" fill-rule="nonzero" opacity="0.72" stroke-linecap="round" stroke-linejoin="round" cx="499.8" cy="129.8" r="27.2"></circle>
            <path d="M517,334.9 C564.1,257.8 581.2,182.1 570.6,119 C561.4,64.2 531.8,24.7 494.4,5.68434189e-14 C457,24.7 427.4,64.2 418.2,119 C407.6,182.1 424.8,257.8 471.8,334.9 L517,334.9 Z" id="XMLID_11_" stroke="#2D1F8F" stroke-width="6" stroke-linecap="round" stroke-linejoin="round"></path>
            <circle id="XMLID_25_" fill="#ABCFD8" fill-rule="nonzero" transform="translate(494.414055, 125.601220) rotate(-80.781636) translate(-494.414055, -125.601220) " cx="494.414055" cy="125.60122" r="27.2004141"></circle>
            <circle id="XMLID_26_" fill="#E2F0F2" fill-rule="nonzero" opacity="0.93" cx="490.7" cy="124.1" r="16.4"></circle>
            <circle id="XMLID_1_" stroke="#601B23" stroke-width="6.00009135" stroke-linecap="round" stroke-linejoin="round" transform="translate(494.414055, 125.601220) rotate(-80.781636) translate(-494.414055, -125.601220) " cx="494.414055" cy="125.60122" r="27.2004141"></circle>
            <path d="M456,34.5 C480.9,25.9 508.2,25.9 533.1,34.6 C521.8,20.9 508.7,9.4 494.5,0 C480.3,9.4 467.2,20.9 456,34.5 Z" id="XMLID_44_" fill="#4A38C1" fill-rule="nonzero"></path>
            <path d="M456,34.5 C480.9,25.9 508.2,25.9 533.1,34.6 C521.8,20.9 508.7,9.4 494.5,0 C480.3,9.4 467.2,20.9 456,34.5 Z" id="XMLID_23_" stroke="#301E95" stroke-width="6" stroke-linecap="round" stroke-linejoin="round"></path>
            <path d="M494.4,381.7 L494.4,381.7 C495.5,381.7 496.4,380.5 496.5,378.9 L504,256.5 C504.8,243.9 500.8,232.2 494.9,229.4 C494.5,229.2 494.1,229.2 493.8,229.4 C487.9,232.1 483.9,243.8 484.7,256.5 L492.2,378.9 C492.4,380.5 493.4,381.7 494.4,381.7 Z" id="XMLID_18_" fill="#BC1D4E" fill-rule="nonzero"></path>
            <path d="M494.4,381.7 L494.4,381.7 C495.5,381.7 496.4,380.5 496.5,378.9 L504,256.5 C504.8,243.9 500.8,232.2 494.9,229.4 C494.5,229.2 494.1,229.2 493.8,229.4 C487.9,232.1 483.9,243.8 484.7,256.5 L492.2,378.9 C492.4,380.5 493.4,381.7 494.4,381.7 Z" id="XMLID_2_" fill="#7362E8" fill-rule="nonzero" opacity="0.74"></path>
            <g id="XMLID_8_" opacity="0.53" transform="translate(484.698255, 228.825000)" fill-rule="nonzero">
                <g id="XMLID_199_">
                    <g id="XMLID_202_" transform="translate(0.000000, 0.575000)" fill="#B1A5FF">
                        <path d="M9.201745,0 C3.301745,2.7 -0.698254997,14.4 0.101745003,27.1 L7.601745,149.5 C7.701745,150.8 8.301745,151.9 9.101745,152.2 L9.101745,0 L9.201745,0 Z" id="XMLID_203_"></path>
                    </g>
                    <g id="XMLID_200_" transform="translate(9.201745, 0.000000)" fill="#F4A15D">
                        <path d="M0,0.575 L1.1,0.575 C0.7,0.375 0.3,0.375 0,0.575 Z" id="XMLID_201_"></path>
                    </g>
                </g>
            </g>
            <path d="M494.4,381.7 L494.4,381.7 C495.5,381.7 496.4,380.5 496.5,378.9 L504,256.5 C504.8,243.9 500.8,232.2 494.9,229.4 C494.5,229.2 494.1,229.2 493.8,229.4 C487.9,232.1 483.9,243.8 484.7,256.5 L492.2,378.9 C492.4,380.5 493.4,381.7 494.4,381.7 Z" id="XMLID_27_" stroke="#301E95" stroke-width="6" stroke-linecap="round" stroke-linejoin="round"></path>
            <path d="M641.2,236.4 C631,221.6 625.1,204.1 625.1,185.4 C625.1,161.7 634.4,140 649.9,123.3 C665.4,140 674.8,161.7 674.9,185.4 C674.9,204.2 669,221.6 658.9,236.4 L641.2,236.4 Z" id="XMLID_255_" fill="#CF264D" fill-rule="nonzero"></path>
            <path d="M641.2,236.4 C631,221.6 625.1,204.1 625.1,185.4 C625.1,161.7 634.4,140 649.9,123.3 C665.4,140 674.8,161.7 674.9,185.4 C674.9,204.2 669,221.6 658.9,236.4 L641.2,236.4 Z" id="XMLID_249_" fill="#818CF8" fill-rule="nonzero"></path>
            <path d="M648.5,123.3 C649.7,124.6 650.9,126 652,127.4 C641.6,143.4 635.6,162.2 635.5,182.2 C635.5,202 638.5,220.5 648.7,236.5 L639.5,236.5 C629.4,221.7 623.5,204.2 623.5,185.5 C623.5,161.7 632.9,140 648.5,123.3 Z" id="XMLID_245_" fill="#D1CBFF" fill-rule="nonzero" opacity="0.23"></path>
            <path d="M648.5,123.3 C648.9,123.7 649.3,124.2 649.7,124.7 C638,142 631.3,162.3 631.2,184.1 C631.2,203 636.3,220.8 645.2,236.5 L639.5,236.5 C629.4,221.7 623.5,204.2 623.5,185.5 C623.5,161.7 632.9,140 648.5,123.3 Z" id="XMLID_242_" fill="#DDD8FF" fill-rule="nonzero" opacity="0.32"></path>
            <path d="M674.9,185.4 C674.9,161.7 665.5,140.1 649.9,123.3 C648.7,124.6 647.5,126 646.4,127.4 C656.8,143.4 662.8,162.2 662.9,182.2 C662.9,202 657.1,220.5 646.9,236.5 L658.9,236.5 C669,221.6 674.9,204.1 674.9,185.4 Z" id="XMLID_239_" fill="#A5143A" fill-rule="nonzero" opacity="0.37"></path>
            <path d="M674.9,185.4 C674.9,161.7 665.5,140.1 649.9,123.3 C649.5,123.7 649.1,124.2 648.7,124.7 C660.4,142 667.1,162.3 667.2,184.1 C667.2,203 662.1,220.8 653.2,236.5 L658.9,236.5 C669,221.6 674.9,204.1 674.9,185.4 Z" id="XMLID_236_" fill="#A5143A" fill-rule="nonzero" opacity="0.72"></path>
            <path d="M649.9,123.3 C648.7,124.6 647.5,126 646.4,127.4 C656.8,143.4 662.8,162.2 662.9,182.2 C662.9,202 657.1,220.5 646.9,236.5 L658.9,236.5 C669,221.7 674.9,204.2 674.9,185.5 C674.9,161.7 665.5,140 649.9,123.3 Z" id="XMLID_233_" fill="#9181FF" fill-rule="nonzero" opacity="0.37"></path>
            <path d="M649.9,123.3 C649.5,123.7 649.1,124.2 648.7,124.7 C660.4,142 667.1,162.3 667.2,184.1 C667.2,203 662.1,220.8 653.2,236.5 L658.9,236.5 C669,221.7 674.9,204.2 674.9,185.5 C674.9,161.7 665.5,140 649.9,123.3 Z" id="XMLID_230_" fill="#6466F1" fill-rule="nonzero" opacity="0.72"></path>
            <path d="M663.2,141.3 C659.5,134.8 655.1,128.8 650,123.2 C644.9,128.7 640.5,134.8 636.8,141.3 L663.2,141.3 Z" id="XMLID_227_" fill="#301E95" fill-rule="nonzero"></path>
            <path d="M641.2,236.4 C631,221.6 625.1,204.1 625.1,185.4 C625.1,161.7 634.4,140 649.9,123.3 C665.4,140 674.8,161.7 674.9,185.4 C674.9,204.2 669,221.6 658.9,236.4 L641.2,236.4 Z" id="XMLID_219_" stroke="#301E95" stroke-width="6" stroke-linecap="round" stroke-linejoin="round"></path>
            <line x1="633.6" y1="223.2" x2="666.5" y2="223.2" id="XMLID_210_" stroke="#301E95" stroke-width="4" stroke-linecap="round" stroke-linejoin="round"></line>
            <path d="M463.6,31.1 C463.6,31.1 470.4,20.4 493.5,2.4 C482.8,16.9 480.7,26 480,26.7 C473.2,28 463.6,31.1 463.6,31.1 Z" id="XMLID_228_" fill="#FFFFFF" fill-rule="nonzero" opacity="0.41"></path>
        </g>
    </g>
</svg>
